<svg xmlns="http://www.w3.org/2000/svg" width="200" height="187.057" viewBox="0 0 200 187.057">
  <g id="undraw_time_management_re_tk5w" transform="translate(0 -0.005)">
    <path id="Path_47609" data-name="Path 47609" d="M828.844,590.59l8.972,1.4a29.3,29.3,0,0,0,6.1-12.71c-6.561,5.37-16.537,2.516-24.493,5.448a17.624,17.624,0,0,0-10.544,11.054l-4.385,4.717a29.532,29.532,0,0,0,24.69-1.359A28.527,28.527,0,0,0,835,594.97C831.858,592.993,828.844,590.59,828.844,590.59Z" transform="translate(-643.963 -447.482)" fill="#f2f2f2"/>
    <path id="Path_47610" data-name="Path 47610" d="M834.675,528.95l8.656-2.746a29.3,29.3,0,0,0-.21-14.1c-3.477,7.732-13.679,9.628-19.492,15.8a17.624,17.624,0,0,0-4.507,14.6l-1.821,6.178a29.532,29.532,0,0,0,21.492-12.228,28.525,28.525,0,0,0,3.342-6.328C838.445,529.756,834.675,528.95,834.675,528.95Z" transform="translate(-652.98 -400.191)" fill="#f2f2f2"/>
    <path id="Path_47611" data-name="Path 47611" d="M462.165,659.787a.351.351,0,0,1-.352.352h-199.3a.352.352,0,1,1,0-.7h199.3a.351.351,0,0,1,.352.352Z" transform="translate(-262.165 -503.909)" fill="#ccc"/>
    <circle id="Ellipse_1210" data-name="Ellipse 1210" cx="63.641" cy="63.641" r="63.641" transform="translate(18.944 13.58)" fill="#e6e6e6"/>
    <path id="Path_47612" data-name="Path 47612" d="M465.684,264.653a54.685,54.685,0,0,1-22.1,43.959c-.459.343-.927.678-1.4,1a54.77,54.77,0,0,1-62.522,0c-.471-.326-.938-.66-1.4-1a54.766,54.766,0,0,1,0-87.919c.459-.343.926-.678,1.4-1a54.77,54.77,0,0,1,62.522,0c.471.326.938.66,1.4,1A54.685,54.685,0,0,1,465.684,264.653Z" transform="translate(-328.339 -187.433)" fill="#fff"/>
    <circle id="Ellipse_1211" data-name="Ellipse 1211" cx="50.024" cy="50.024" r="50.024" transform="translate(32.56 27.196)" fill="#1c9f56"/>
    <path id="Path_47613" data-name="Path 47613" d="M531.185,226.365c-.758,0-1.512.02-2.262.053a50.023,50.023,0,0,1-2.118,99.8c1.444.125,2.9.193,4.38.193a50.024,50.024,0,0,0,0-100.049Z" transform="translate(-448.471 -199.029)" opacity="0.2"/>
    <path id="Path_47614" data-name="Path 47614" d="M537.791,213.892a1.631,1.631,0,0,0-1.628,1.628v7.1a1.628,1.628,0,0,0,3.256,0v-7.1A1.631,1.631,0,0,0,537.791,213.892Z" transform="translate(-455.059 -190.249)" fill="#fff"/>
    <path id="Path_47615" data-name="Path 47615" d="M634.537,243.988c-.459-.343-.926-.678-1.4-1a1.627,1.627,0,0,0-1.45.707l-4,5.87a1.628,1.628,0,1,0,2.691,1.832l4-5.87A1.617,1.617,0,0,0,634.537,243.988Z" transform="translate(-519.295 -210.727)" fill="#fff"/>
    <path id="Path_47616" data-name="Path 47616" d="M689.76,334.39a1.626,1.626,0,0,0-2.119-.894l-6.583,2.673a1.628,1.628,0,0,0,1.225,3.016l6.583-2.673A1.632,1.632,0,0,0,689.76,334.39Z" transform="translate(-556.349 -274.365)" fill="#fff"/>
    <path id="Path_47617" data-name="Path 47617" d="M437.382,249.561l-4-5.87a1.627,1.627,0,0,0-1.45-.707c-.471.326-.938.66-1.4,1a1.617,1.617,0,0,0,.157,1.536l4,5.87a1.628,1.628,0,0,0,2.691-1.832Z" transform="translate(-380.609 -210.727)" fill="#fff"/>
    <path id="Path_47618" data-name="Path 47618" d="M377.866,336.17l-6.583-2.673a1.628,1.628,0,1,0-1.225,3.016l6.583,2.673a1.628,1.628,0,0,0,1.225-3.016Z" transform="translate(-337.406 -274.365)" fill="#fff"/>
    <path id="Path_47619" data-name="Path 47619" d="M537.791,540.892a1.631,1.631,0,0,0-1.628,1.628v7.1a1.628,1.628,0,0,0,3.256,0v-7.1A1.631,1.631,0,0,0,537.791,540.892Z" transform="translate(-455.059 -420.456)" fill="#fff"/>
    <path id="Path_47620" data-name="Path 47620" d="M634.381,522.56l-4-5.87a1.628,1.628,0,1,0-2.691,1.832l4,5.87a1.627,1.627,0,0,0,1.45.707c.471-.326.938-.66,1.4-1A1.618,1.618,0,0,0,634.381,522.56Z" transform="translate(-519.295 -402.916)" fill="#fff"/>
    <path id="Path_47621" data-name="Path 47621" d="M688.866,439.17l-6.583-2.673a1.628,1.628,0,0,0-1.225,3.016l6.583,2.673a1.628,1.628,0,0,0,1.225-3.016Z" transform="translate(-556.349 -346.877)" fill="#fff"/>
    <path id="Path_47622" data-name="Path 47622" d="M436.953,516.261a1.628,1.628,0,0,0-2.261.429l-4,5.87a1.618,1.618,0,0,0-.157,1.536c.459.343.926.678,1.4,1a1.627,1.627,0,0,0,1.45-.707l4-5.87a1.627,1.627,0,0,0-.429-2.261Z" transform="translate(-380.609 -402.917)" fill="#fff"/>
    <path id="Path_47623" data-name="Path 47623" d="M378.76,437.39a1.626,1.626,0,0,0-2.119-.894l-6.583,2.673a1.628,1.628,0,0,0,1.225,3.016l6.583-2.673a1.632,1.632,0,0,0,.894-2.122Z" transform="translate(-337.406 -346.876)" fill="#fff"/>
    <path id="Path_47624" data-name="Path 47624" d="M464.012,385.425a3.408,3.408,0,0,1-2.785,3.927l-28.889,4.914a3.4,3.4,0,1,1-1.142-6.712l28.889-4.914A3.408,3.408,0,0,1,464.012,385.425Z" transform="translate(-379.167 -309.013)" fill="#3f3d56"/>
    <path id="Path_47625" data-name="Path 47625" d="M568.526,417.912a2.222,2.222,0,0,1-3.14.012l-31.1-30.855a2.22,2.22,0,1,1,3.127-3.152l31.1,30.855A2.222,2.222,0,0,1,568.526,417.912Z" transform="translate(-453.277 -309.492)" fill="#3f3d56"/>
    <circle id="Ellipse_1212" data-name="Ellipse 1212" cx="3.848" cy="3.848" r="3.848" transform="translate(78.736 73.372)" fill="#ccc"/>
    <path id="Path_47626" data-name="Path 47626" d="M373.828,144.521c-5.907,9.286-14.919,15.449-26.033,19.5a2.089,2.089,0,0,1-2.925-.42h0a18.353,18.353,0,1,1,29.211-22.226l.167.223a2.089,2.089,0,0,1-.42,2.925Z" transform="translate(-317.749 -134.027)" fill="#e6e6e6"/>
    <path id="Path_47627" data-name="Path 47627" d="M628.463,141.374A18.353,18.353,0,1,1,657.674,163.6h0a2.089,2.089,0,0,1-2.925.42c-10.318-3.95-18.779-10.786-26.033-19.5a2.089,2.089,0,0,1-.42-2.925Z" transform="translate(-519.627 -134.027)" fill="#e6e6e6"/>
    <path id="Path_47628" data-name="Path 47628" d="M619.126,580.669a1.631,1.631,0,0,0-.626,2.216l9.4,16.79a1.628,1.628,0,1,0,2.841-1.59l-9.4-16.79A1.631,1.631,0,0,0,619.126,580.669Z" transform="translate(-512.879 -448.313)" fill="#e6e6e6"/>
    <path id="Path_47629" data-name="Path 47629" d="M430.894,581.293l-9.4,16.79a1.628,1.628,0,1,0,2.841,1.59l9.4-16.79a1.628,1.628,0,1,0-2.841-1.59Z" transform="translate(-374.189 -448.311)" fill="#e6e6e6"/>
    <circle id="Ellipse_1213" data-name="Ellipse 1213" cx="5.032" cy="5.032" r="5.032" transform="translate(111.888 145.597)" fill="#e6e6e6"/>
    <circle id="Ellipse_1214" data-name="Ellipse 1214" cx="5.032" cy="5.032" r="5.032" transform="translate(115.44 16.836)" fill="#e6e6e6"/>
    <circle id="Ellipse_1215" data-name="Ellipse 1215" cx="5.032" cy="5.032" r="5.032" transform="translate(77.256 4.996)" fill="#e6e6e6"/>
    <circle id="Ellipse_1216" data-name="Ellipse 1216" cx="5.032" cy="5.032" r="5.032" transform="translate(40.848 16.244)" fill="#e6e6e6"/>
    <circle id="Ellipse_1217" data-name="Ellipse 1217" cx="5.032" cy="5.032" r="5.032" transform="translate(44.104 145.597)" fill="#e6e6e6"/>
    <path id="Path_47630" data-name="Path 47630" d="M642.859,481.428a2.521,2.521,0,0,0,3.833.5l7.9,4.231-.423-4.636-7.433-3.307a2.534,2.534,0,0,0-3.873,3.216Z" transform="translate(-529.886 -375.839)" fill="#ffb7b7"/>
    <path id="Path_47631" data-name="Path 47631" d="M663.264,486.041l3.094-4.271,14.907,7.047,18.55-3.481a6.356,6.356,0,0,1,7.527,6.235h0A6.362,6.362,0,0,1,701,497.937l-21.258.039Z" transform="translate(-544.538 -378.833)" fill="#3f3d56"/>
    <path id="Path_47632" data-name="Path 47632" d="M377.553,576.716l-3.131-1.5,4.3-13.086,4.62,2.21Z" transform="translate(-263.592 -395.737)" fill="#ffb7b7"/>
    <path id="Path_47633" data-name="Path 47633" d="M699,708.924c-.228.143-.455.283-.685.423-.458.281-.92.557-1.382.828-.232.136-.467.271-.7.4v.007l-.014,0,0,0-.354.087-.508-1.343-.235-.619-.331-.876-.607-1.6-3.2-8.439,4.969-1.226.186.761h0l.092.377,1.736,7.041.354,1.44.011.044.214.86.184.745.2.832Z" transform="translate(-564.055 -530.054)" fill="#ffb7b7"/>
    <path id="Path_47634" data-name="Path 47634" d="M719.855,602.274c-.315.506-.637,1.01-.961,1.509q-.9,1.393-1.856,2.746s0,0,0,0a6.49,6.49,0,0,1-1.219.89c-.018.014-.039.023-.057.034a4.494,4.494,0,0,1-1.026.412l-.389.1c-.465.11-.924.2-1.382.287-.814.145-1.619.248-2.419.313-.064.007-.129.011-.193.016a37.411,37.411,0,0,1-9.838-.784c-1.651-.313-3.337-.688-5.082-1.076-.57-.129-1.143-.255-1.722-.382l-.136-.03c-.828-.182-1.669-.361-2.532-.538-1.085-.223-2.205-.439-3.369-.644l.083,1.64a12.341,12.341,0,0,0,.777,3.686,6.362,6.362,0,0,1,.06,5l-.4,1.159a3.958,3.958,0,0,1-.407,3.5l-.08.122,3.337,8.442.216.547h-1.709l-2.1,0h-3.562l-5.14-10.311-.246-.492V618.4l.531-19.815c.007-.175.021-.352.044-.527A6.025,6.025,0,0,1,681.365,594a5.8,5.8,0,0,1,4.321-1.182l1.759.228,3.594.464,2.532.329.051.007,7.467.966.536-2.185.1-.037,3.143-1.152,10.872-3.985.028-.009.715-.262.085.138c.025.041.051.083.074.124a21.3,21.3,0,0,1,1.718,3.987,62.6,62.6,0,0,1,1.805,6.892q.031.152.055.276l.007.025c.007.039.011.064.014.071A6.431,6.431,0,0,1,719.855,602.274Z" transform="translate(-555.262 -453.042)" fill="#2f2e41"/>
    <path id="Path_47635" data-name="Path 47635" d="M696.794,587.59c-.034-.147-.078-.3-.124-.442a31.455,31.455,0,0,0-1.274-3.224c-.543-1.2-1.193-2.477-1.968-3.863q-.562-1.007-1.21-2.095-.324-.545-.674-1.111-.014-.026-.03-.051l-.067-.11-10.757,1.44-4.006.536-.239,2-.057.494s0,0,0,0l-.161,1.348v0l-.214,1.78-.018,0-5.944-.77-6.126-.793-3.291-.425a5.8,5.8,0,0,0-4.321,1.182,6.027,6.027,0,0,0-2.293,4.056c-.021.161-.034.327-.041.49l-3.1,7.356a47.461,47.461,0,0,0-3.509,13.807l-2.277,7.278.324.03,4.824.448,1.274.12,2.805-4.1c.32-.467.623-.947.906-1.44a21.874,21.874,0,0,0,1.239-2.493l6.069-14.441q.7.121,1.393.23,3.191.517,6.126.844a72.187,72.187,0,0,0,16.778.163q2.066-.252,3.994-.662.707-.148,1.4-.32c.108-.025.214-.051.32-.078a5.868,5.868,0,0,0,4.1-3.836,5.987,5.987,0,0,0,.152-3.35Z" transform="translate(-531.742 -445.661)" fill="#2f2e41"/>
    <path id="Path_47636" data-name="Path 47636" d="M622.489,733.739l-3.387-1.624-.531-.255-.849,2.083-5.924,1.3a1.406,1.406,0,0,0-.23,2.674l5.788,2.362,1.837-1.653-.451,2.219,2.18.89,2.389-7.6Z" transform="translate(-507.528 -554.896)" fill="#2f2e41"/>
    <path id="Path_47637" data-name="Path 47637" d="M458.7,593.34l.216.547H458.7Z" transform="translate(-322.926 -417.707)" fill="#2f2e41"/>
    <path id="Path_47638" data-name="Path 47638" d="M700.8,728.9l-3.549,1.23-.557.192.863,2.077-3.292,5.095a1.406,1.406,0,0,0,1.718,2.062l5.775-2.394.142-2.468,1.241,1.894,2.175-.9-3.653-7.085Z" transform="translate(-566.206 -552.604)" fill="#2f2e41"/>
    <path id="Path_47639" data-name="Path 47639" d="M769.31,522.42a1.3,1.3,0,0,1-.6-.15l-18.729-9.787-.216-.886-.408-2.8.006-.026,1.781-8.212c-.033-.071-.1-.186-.178-.317-.8-1.347-3.215-5.448,1.4-11.094l8.109-9.454,6.96-.3.079.1a18.128,18.128,0,0,1,3.081,16.839l-.725,13.088.777,2.643a7.293,7.293,0,0,1-.214,4.72l.178,4.28a1.308,1.308,0,0,1-1.3,1.359Z" transform="translate(-605.143 -377.159)" fill="#3f3d56"/>
    <path id="Path_47640" data-name="Path 47640" d="M752.765,633.736a2.521,2.521,0,0,0,.629-3.814l4.5-7.744-4.648.262-3.564,7.314a2.534,2.534,0,0,0,3.079,3.982Z" transform="translate(-604.845 -477.681)" fill="#ffb7b7"/>
    <path id="Path_47641" data-name="Path 47641" d="M758.135,537.67l-4.161-3.241,7.561-14.653L758.7,501.117a6.356,6.356,0,0,1,6.493-7.306h0a6.362,6.362,0,0,1,6.143,6.561l-.7,21.246Z" transform="translate(-608.397 -387.308)" fill="#3f3d56"/>
    <path id="a1ca5f83-7fa1-45b1-9d3b-bf096f25c0e5" d="M771.842,428.788V421.9a9.228,9.228,0,0,1,18.457-.012v.012c1.627,3.389.609,5,0,6.887a1.241,1.241,0,0,1-1.239,1.239H773.082A1.241,1.241,0,0,1,771.842,428.788Z" transform="translate(-620.977 -330.185)" fill="#2f2e41"/>
    <circle id="Ellipse_1218" data-name="Ellipse 1218" cx="6.908" cy="6.908" r="6.908" transform="translate(150.161 85.579)" fill="#ffb7b7"/>
    <path id="Path_47642" data-name="Path 47642" d="M779.924,427.794c-.063-.01-.125-.023-.188-.033-1.078-.191-2.155-.379-3.229-.573l-.1-2.435-1.3,2.181a10.922,10.922,0,0,1-8.36-.8,23.6,23.6,0,0,1-2.5-1.381,9.155,9.155,0,0,1,4.5-6.478c.1-.056.194-.105.293-.155h0v0c.168-.079.339-.155.511-.224a7.609,7.609,0,0,1,7.988,1.549A9.091,9.091,0,0,1,779.924,427.794Z" transform="translate(-615.626 -333.496)" fill="#2f2e41"/>
  </g>
</svg>
