<svg xmlns="http://www.w3.org/2000/svg" width="260" height="157.526" viewBox="0 0 260 157.526">
  <g id="undraw_season_change_f99v" transform="translate(0 0.005)">
    <ellipse id="Ellipse_1184" data-name="Ellipse 1184" cx="129.329" cy="5.243" rx="129.329" ry="5.243" transform="translate(0 147.035)" fill="#e6e6e6"/>
    <path id="Path_47591" data-name="Path 47591" d="M811.1,271.674h-6.741l3.073-104.1Z" transform="translate(-570.067 -118.769)" fill="#3f3d56"/>
    <path id="Path_47592" data-name="Path 47592" d="M814.783,210.946l7.237-10.013-7.336,12.492-.793-1.388Z" transform="translate(-576.821 -142.409)" fill="#3f3d56"/>
    <path id="Path_47593" data-name="Path 47593" d="M796.622,245.663l-7.237-10.013,7.336,12.492.793-1.388Z" transform="translate(-559.453 -167.014)" fill="#3f3d56"/>
    <circle id="Ellipse_1186" data-name="Ellipse 1186" cx="61.315" cy="61.315" r="61.315" transform="translate(72.398 30.257)" fill="#3f3d56"/>
    <circle id="Ellipse_1187" data-name="Ellipse 1187" cx="56.24" cy="56.24" r="56.24" transform="translate(77.474 35.333)" fill="#fff"/>
    <circle id="Ellipse_1188" data-name="Ellipse 1188" cx="7.512" cy="7.512" r="7.512" transform="translate(125.998 84.264)" fill="#3f3d56"/>
    <rect id="Rectangle_6402" data-name="Rectangle 6402" width="3.248" height="6.091" transform="translate(131.886 38.176)" fill="#3f3d56"/>
    <rect id="Rectangle_6403" data-name="Rectangle 6403" width="3.248" height="6.091" transform="translate(131.886 139.285)" fill="#3f3d56"/>
    <rect id="Rectangle_6404" data-name="Rectangle 6404" width="3.248" height="6.091" transform="translate(86.001 90.151) rotate(90)" fill="#3f3d56"/>
    <rect id="Rectangle_6405" data-name="Rectangle 6405" width="3.248" height="6.091" transform="translate(187.111 90.151) rotate(90)" fill="#3f3d56"/>
    <path id="Path_47594" data-name="Path 47594" d="M450.924,310.841l2.776-6.348,34.786,19.266Z" transform="translate(-319.579 -215.804)" fill="#3f3d56"/>
    <rect id="Rectangle_6406" data-name="Rectangle 6406" width="15.836" height="18.273" transform="translate(125.795 15.436)" fill="#3f3d56"/>
    <ellipse id="Ellipse_1189" data-name="Ellipse 1189" cx="18.273" cy="5.076" rx="18.273" ry="5.076" transform="translate(115.441 10.36)" fill="#3f3d56"/>
    <path id="Path_47595" data-name="Path 47595" d="M715.853,527.825l-1.015,1.421s-4.67,5.482-4.873,2.842,3.452-4.466,3.452-4.466l2.03-1.218Z" transform="translate(-547.928 -425.39)" fill="#ffb8b8"/>
    <path id="Path_47596" data-name="Path 47596" d="M825.87,547.158l.85,1.526s2.956,6.566.484,5.62-2.56-5.031-2.56-5.031l-.232-2.356Z" transform="translate(-629.045 -439.928)" fill="#ffb8b8"/>
    <circle id="Ellipse_1190" data-name="Ellipse 1190" cx="6.182" cy="6.182" r="6.182" transform="translate(186.072 67.812)" fill="#2f2e41"/>
    <path id="Path_47597" data-name="Path 47597" d="M811.751,607.209l.812,5.279v1.624h4.67v-2.03s.2-3.655-.609-4.67S811.751,607.209,811.751,607.209Z" transform="translate(-620.073 -482.44)" fill="#ffb8b8"/>
    <path id="Path_47598" data-name="Path 47598" d="M783.173,607.209l.812,5.279v1.624h4.67v-2.03s.2-3.655-.609-4.67S783.173,607.209,783.173,607.209Z" transform="translate(-599.818 -482.44)" fill="#ffb8b8"/>
    <path id="Path_47599" data-name="Path 47599" d="M791.533,462.384s-1.8.947-.569,3.1,8.424,24.431,8.424,24.431l4.153-1.179-3.662-14.089-2.1-8.855Z" transform="translate(-605.036 -380.018)" fill="#1c9f56"/>
    <circle id="Ellipse_1191" data-name="Ellipse 1191" cx="4.67" cy="4.67" r="4.67" transform="translate(186.908 71.067)" fill="#ffb8b8"/>
    <path id="Path_47600" data-name="Path 47600" d="M806.865,442.063l-.609,9.542-4.264-3.045s1.421-5.685,1.015-6.091Z" transform="translate(-613.156 -365.616)" fill="#ffb8b8"/>
    <path id="Path_47601" data-name="Path 47601" d="M794.851,462.929l-4.593-3.4s-2.107-.862-2.716.153-3.655,16.039-2.03,18.882c0,0,8.73,1.827,10.557.812l.812-5.279s1.015-3.249-.609-5.279Z" transform="translate(-601.141 -377.751)" fill="#1c9f56"/>
    <path id="Path_47602" data-name="Path 47602" d="M745.446,460.7s-1.624-1.218-3.045.812-18.476,18.07-18.476,18.07l2.842,3.248,11.167-9.339,7.106-5.685Z" transform="translate(-557.828 -378.567)" fill="#1c9f56"/>
    <path id="Path_47603" data-name="Path 47603" d="M792.48,525.641s-10.05-1.929-11.065-.508l-.2,2.233s-2.233,4.264-1.015,11.167A33.992,33.992,0,0,1,780.6,549.7a44.889,44.889,0,0,1,9.542,0c4.061.609,4.67,0,4.67,0Z" transform="translate(-597.452 -424.119)" fill="#2f2e41"/>
    <path id="Path_47604" data-name="Path 47604" d="M817.639,628.868l-5.888.2,2.03,15.227s-1.624,6.5.2,6.9a20.606,20.606,0,0,0,3.858.406s1.827,1.827,3.858,1.624a11.371,11.371,0,0,0,3.858-1.218,1.262,1.262,0,0,0-1.015-1.624c-1.421-.406-5.279-1.624-6.091-5.888Z" transform="translate(-620.073 -498.009)" fill="#2f2e41"/>
    <path id="Path_47605" data-name="Path 47605" d="M789.061,628.868l-5.888.2L785.2,644.3s-1.624,6.5.2,6.9a20.6,20.6,0,0,0,3.858.406s1.827,1.827,3.858,1.624a11.37,11.37,0,0,0,3.858-1.218,1.262,1.262,0,0,0-1.015-1.624c-1.421-.406-5.279-1.624-6.091-5.888Z" transform="translate(-599.818 -498.009)" fill="#2f2e41"/>
    <circle id="Ellipse_1192" data-name="Ellipse 1192" cx="2.558" cy="2.558" r="2.558" transform="translate(191.859 64.929)" fill="#2f2e41"/>
    <path id="Path_47606" data-name="Path 47606" d="M827.285,400.322a2.558,2.558,0,0,0-2.292-2.544,2.616,2.616,0,0,1,.266-.014,2.558,2.558,0,1,1,0,5.116,2.6,2.6,0,0,1-.266-.014A2.558,2.558,0,0,0,827.285,400.322Z" transform="translate(-629.457 -334.22)" fill="#2f2e41"/>
    <ellipse id="Ellipse_1193" data-name="Ellipse 1193" cx="4.264" cy="2.558" rx="4.264" ry="2.558" transform="translate(187.271 70.125)" fill="#2f2e41"/>
    <path id="Path_47607" data-name="Path 47607" d="M921.6,191.873a13.013,13.013,0,0,0-25.532-2.744c-.158-.006-.315-.012-.474-.012a13.016,13.016,0,0,0-12.485,9.345,9.2,9.2,0,0,0-10.914,2.717h40.593a8.8,8.8,0,0,0,8.822-9.114Q921.607,191.969,921.6,191.873Z" transform="translate(-662.911 -179.599)" fill="#e6e6e6"/>
    <circle id="Ellipse_1194" data-name="Ellipse 1194" cx="3.495" cy="3.495" r="3.495" transform="translate(221.26 32.672)" fill="#e6e6e6"/>
    <circle id="Ellipse_1195" data-name="Ellipse 1195" cx="2.91" cy="2.91" r="2.91" transform="translate(232.399 25.016)" fill="#e6e6e6"/>
    <circle id="Ellipse_1196" data-name="Ellipse 1196" cx="3.495" cy="3.495" r="3.495" transform="translate(246.019 40.245)" fill="#e6e6e6"/>
    <circle id="Ellipse_1197" data-name="Ellipse 1197" cx="3.495" cy="3.495" r="3.495" transform="translate(219.512 56.265)" fill="#e6e6e6"/>
    <circle id="Ellipse_1198" data-name="Ellipse 1198" cx="3.495" cy="3.495" r="3.495" transform="translate(246.019 76.363)" fill="#e6e6e6"/>
    <path id="Path_47608" data-name="Path 47608" d="M955.851,674.234c0-.038.006-.075.006-.113a5.519,5.519,0,0,0-11.016-.289l-.053,0a5.268,5.268,0,0,0,8.143,6.612,3.492,3.492,0,1,0,2.92-6.208Z" transform="translate(-711.877 -526.976)" fill="#e6e6e6"/>
    <circle id="Ellipse_1199" data-name="Ellipse 1199" cx="1.456" cy="1.456" r="1.456" transform="translate(251.262 64.421)" fill="#e6e6e6"/>
    <circle id="Ellipse_1200" data-name="Ellipse 1200" cx="1.456" cy="1.456" r="1.456" transform="translate(241.941 29.467)" fill="#e6e6e6"/>
    <circle id="Ellipse_1201" data-name="Ellipse 1201" cx="1.456" cy="1.456" r="1.456" transform="translate(236.989 65.586)" fill="#e6e6e6"/>
    <circle id="Ellipse_1202" data-name="Ellipse 1202" cx="1.456" cy="1.456" r="1.456" transform="translate(238.154 64.13)" fill="#e6e6e6"/>
    <circle id="Ellipse_1203" data-name="Ellipse 1203" cx="1.456" cy="1.456" r="1.456" transform="translate(239.028 62.673)" fill="#e6e6e6"/>
    <circle id="Ellipse_1204" data-name="Ellipse 1204" cx="1.456" cy="1.456" r="1.456" transform="translate(235.533 74.907)" fill="#e6e6e6"/>
    <circle id="Ellipse_1205" data-name="Ellipse 1205" cx="1.456" cy="1.456" r="1.456" transform="translate(257.087 91.219)" fill="#e6e6e6"/>
    <circle id="Ellipse_1206" data-name="Ellipse 1206" cx="1.456" cy="1.456" r="1.456" transform="translate(225.92 92.093)" fill="#e6e6e6"/>
    <circle id="Ellipse_1207" data-name="Ellipse 1207" cx="1.456" cy="1.456" r="1.456" transform="translate(227.668 47.236)" fill="#e6e6e6"/>
    <circle id="Ellipse_1208" data-name="Ellipse 1208" cx="1.456" cy="1.456" r="1.456" transform="translate(234.367 73.451)" fill="#e6e6e6"/>
    <circle id="Ellipse_1209" data-name="Ellipse 1209" cx="1.456" cy="1.456" r="1.456" transform="translate(232.911 71.12)" fill="#e6e6e6"/>
  </g>
</svg>
