<svg xmlns="http://www.w3.org/2000/svg" width="24" height="29.524" viewBox="0 0 24 29.524">
  <g id="APPLE_icon-icons.com_65545" transform="translate(-60.687 -4.287)">
    <path id="Path_47478" data-name="Path 47478" d="M67.942,126.017a8.165,8.165,0,0,1,3.2.749,13.631,13.631,0,0,0,1.352.463,1.686,1.686,0,0,0,1.06-.076c.6-.217,1.189-.433,1.786-.656a7.839,7.839,0,0,1,3.226-.58,6.969,6.969,0,0,1,5.182,2.57c.234.281.217.31-.076.515a6.331,6.331,0,0,0-2.828,6.259,6.178,6.178,0,0,0,3.577,5.07c.269.135.322.258.222.533a17.679,17.679,0,0,1-2.968,5.205,10.541,10.541,0,0,1-1.235,1.317,3.622,3.622,0,0,1-3.478.726c-.662-.176-1.276-.474-1.926-.691a5.891,5.891,0,0,0-3.73.064c-.65.211-1.265.5-1.926.679a3.288,3.288,0,0,1-3.337-.861,16.342,16.342,0,0,1-3.735-5.363,18.2,18.2,0,0,1-1.393-4.614,12.631,12.631,0,0,1,.263-5.9,7.805,7.805,0,0,1,2.658-3.97A6.478,6.478,0,0,1,67.942,126.017Z" transform="translate(0 -114.498)" fill="#464646"/>
    <path id="Path_47479" data-name="Path 47479" d="M264.782,10.465a6.113,6.113,0,0,1,2.242-4.549A7.069,7.069,0,0,1,270.473,4.3c.2-.035.281-.006.287.217a6.743,6.743,0,0,1-2.477,5.445,4.741,4.741,0,0,1-3.132,1.165c-.293.006-.416-.076-.375-.375A1.543,1.543,0,0,0,264.782,10.465Z" transform="translate(-192.133)" fill="#464646"/>
  </g>
</svg>
