<svg xmlns="http://www.w3.org/2000/svg" width="12.849" height="12.849" viewBox="0 0 12.849 12.849">
  <g transform="translate(-97.04 -18.576)">
    <path id="Path_11" data-name="Path 11" d="M15.006,4.146,10.217,8.937,5.427,4.146,4.146,5.427l4.791,4.789L4.146,15.006l1.281,1.281L10.217,11.5l4.789,4.791,1.281-1.281L11.5,10.217l4.791-4.789Z" transform="translate(93.248 14.783)" fill="red"/>
    <path id="Path_11_-_Outline" data-name="Path 11 - Outline" d="M5.428,3.792l4.789,4.791,4.789-4.791,1.635,1.635L11.85,10.217l4.791,4.789-1.635,1.635L10.217,11.85,5.428,16.641,3.792,15.006l4.791-4.789L3.792,5.428Zm4.789,5.5L5.427,4.5,4.5,5.427l4.791,4.789L4.5,15.006l.928.928,4.789-4.791,4.789,4.791.928-.928-4.791-4.789,4.791-4.789L15.006,4.5Z" transform="translate(93.248 14.783)" fill="red"/>
  </g>
</svg>
