<svg xmlns="http://www.w3.org/2000/svg" width="22.009" height="20.003" viewBox="0 0 22.009 20.003">
  <g id="alert_attention_caution_danger_error_notification_warning_icon_123234" transform="translate(-2.986 -3.997)">
    <g id="Layer_2" data-name="Layer 2" transform="translate(2.986 3.997)">
      <path id="Path_47454" data-name="Path 47454" d="M19.668,24H8.329A5.3,5.3,0,0,1,3.7,21.375a5.058,5.058,0,0,1,0-5.183L9.4,6.6a5.373,5.373,0,0,1,9.207,0l5.678,9.592h0a5.058,5.058,0,0,1,0,5.183A5.3,5.3,0,0,1,19.668,24ZM14,5.666a3.6,3.6,0,0,0-3.139,1.767l-5.678,9.6a3.413,3.413,0,0,0,0,3.508,3.59,3.59,0,0,0,3.148,1.792H19.668a3.59,3.59,0,0,0,3.156-1.792,3.413,3.413,0,0,0,0-3.508l-5.686-9.6A3.6,3.6,0,0,0,14,5.666Z" transform="translate(-2.986 -3.997)" fill="red"/>
      <path id="Path_47455" data-name="Path 47455" d="M16,12a.54.54,0,0,0-.44.22.52.52,0,0,0-.1.48L16,14.88l.54-2.18a.52.52,0,0,0-.1-.48A.54.54,0,0,0,16,12Z" transform="translate(-4.987 -5.513)" fill="none"/>
      <path id="Path_47456" data-name="Path 47456" d="M17.209,10.832a2.114,2.114,0,0,0-3.3,0,2.065,2.065,0,0,0-.38,1.809l1.206,5a.826.826,0,0,0,1.6,0l1.247-5A2.065,2.065,0,0,0,17.209,10.832ZM16,12.236l-.446,1.8-.446-1.8a.429.429,0,0,1,.083-.4.454.454,0,0,1,.727,0A.429.429,0,0,1,16,12.236Z" transform="translate(-4.545 -5.718)" fill="red"/>
      <circle id="Ellipse_1150" data-name="Ellipse 1150" cx="1.5" cy="1.5" r="1.5" transform="translate(9.513 13.764)" fill="red"/>
    </g>
  </g>
</svg>
