<svg id="Layer_1" enable-background="new 0 0 468 468" height="512" viewBox="0 0 468 468" width="512" xmlns="http://www.w3.org/2000/svg"><g><g><g><path d="m104.884 131.227h71.492v30.017h-71.492z"/></g><g><path d="m104.884 199.484h71.492v30.017h-71.492z"/></g><g><path d="m104.884 267.74h71.492v30.017h-71.492z"/></g><g><path d="m104.884 335.997h71.492v30.017h-71.492z"/></g></g><g><path d="m249.46 405.983v-245.267l156.74-.183v165.459h30v-180.485c0-8.188-6.841-15.009-15.018-15.009l-186.74.218c-8.277.01-14.982 6.726-14.982 15.009v260.258h-157.66v-296.996l157.66-42.413v34.075h30v-53.652c0-9.71-9.511-17.018-18.895-14.494l-187.66 50.483c-6.551 1.763-11.105 7.706-11.105 14.494v308.503h-31.8v30.017h468v-30.017z"/><g><path d="m406.2 353.008h30v27.961h-30z"/></g><g><g><path d="m291.624 199.484h71.492v30.017h-71.492z"/></g><g><path d="m291.624 267.74h71.492v30.017h-71.492z"/></g><g><path d="m291.624 335.997h71.492v30.017h-71.492z"/></g></g></g></g></svg>
