<svg xmlns="http://www.w3.org/2000/svg" width="14.747" height="16" viewBox="0 0 14.747 16">
  <g id="import_download_icon_176152" transform="translate(-2.25 -2.937)">
    <path id="Path_47448" data-name="Path 47448" d="M16.929,12.453a.679.679,0,0,1-.679-.679V1.616a.679.679,0,0,1,1.358,0V11.774a.679.679,0,0,1-.679.679Z" transform="translate(-7.306 2)" fill="#91acc2"/>
    <path id="Path_47449" data-name="Path 47449" d="M13.217,18.209a1.733,1.733,0,0,1-1.229-.509L8.32,14.032a.679.679,0,0,1,.96-.96l3.668,3.668a.38.38,0,0,0,.538,0l3.668-3.668a.679.679,0,1,1,.961.96L14.447,17.7a1.734,1.734,0,0,1-1.229.509Z" transform="translate(-3.594 -3.45)" fill="#91acc2"/>
    <path id="Path_47450" data-name="Path 47450" d="M15.2,27.989H4.051a1.8,1.8,0,0,1-1.8-1.8V22.44a.679.679,0,0,1,1.358,0v3.748a.443.443,0,0,0,.442.442H15.2a.443.443,0,0,0,.442-.442V22.44a.679.679,0,1,1,1.358,0v3.748a1.8,1.8,0,0,1-1.8,1.8Z" transform="translate(0 -9.052)" fill="#91acc2"/>
  </g>
</svg>
