<svg xmlns="http://www.w3.org/2000/svg" width="14" height="13.978" viewBox="0 0 14 13.978">
  <path id="edit_FILL1_wght300_GRAD0_opsz24" d="M16.2,7.766,13.416,5l1.094-1.074a1.272,1.272,0,0,1,1.755,0l1.012,1.012a1.318,1.318,0,0,1,.372.877,1.07,1.07,0,0,1-.351.857ZM4.393,17.553a.74.74,0,0,1-.743-.743V15.076A.761.761,0,0,1,3.7,14.8a.743.743,0,0,1,.175-.259l8.651-8.651,2.787,2.787L6.665,17.326a.756.756,0,0,1-.258.176.779.779,0,0,1-.279.051Z" transform="translate(-3.65 -3.575)" fill="currentColor"/>
</svg>
