<?xml version="1.0" encoding="iso-8859-1"?>
<!-- Generator: Adobe Illustrator 19.0.0, SVG Export Plug-In . SVG Version: 6.00 Build 0)  -->
<svg version="1.1" id="Capa_1" xmlns="http://www.w3.org/2000/svg" xmlns:xlink="http://www.w3.org/1999/xlink" x="0px" y="0px"
	 viewBox="0 0 512 512" style="enable-background:new 0 0 512 512;" xml:space="preserve">
<g>
	<g>
		<path d="M433.145,244.496C444.268,231.409,451,214.48,451,196v-30c0-27.461-14.844-51.509-36.922-64.577
			c-0.221-0.15-0.451-0.287-0.681-0.425C418.196,93.843,421,85.243,421,76c0-24.813-20.187-45-45-45s-45,20.187-45,45
			c0,9.254,2.81,17.862,7.618,25.022C316.159,113.994,301,138.252,301,166v30c0,18.48,6.732,35.409,17.855,48.496
			c-26.966,7.082-49.747,24.452-63.784,47.596c-13.824-23.01-36.253-40.392-62.975-47.54C203.248,231.457,210,214.507,210,196v-30
			c0-41.355-33.645-75-75-75H45c-8.284,0-15,6.716-15,15c0,24.484,11.796,46.263,30.001,59.959c0,0.014-0.001,0.027-0.001,0.041v30
			c0,18.507,6.752,35.457,17.904,48.552C32.968,256.56,0,297.597,0,346v120c0,8.284,6.716,15,15,15c9.802,0,471.51,0,482,0
			c8.284,0,15-6.716,15-15V346C512,297.395,478.484,256.403,433.145,244.496z M135,241c-24.813,0-45-20.187-45-45v-16.509
			c4.848,0.988,9.864,1.509,15,1.509h75v15C180,220.813,159.813,241,135,241z M158.787,271L135,294.787L111.213,271H158.787z
			 M62.57,121H135c19.555,0,36.228,12.542,42.42,30H105C85.443,151,68.761,138.461,62.57,121z M91.584,412.708L110.73,451H30V346
			c0-30.71,18.561-57.154,45.047-68.74l42.791,42.791L90.77,401.257C89.512,405.031,89.805,409.15,91.584,412.708z M135,432.459
			l-13.805-27.61L135,363.434l13.805,41.415L135,432.459z M240,451h-80.73l19.146-38.292c1.779-3.558,2.072-7.677,0.814-11.451
			l-27.069-81.206l42.791-42.791C221.439,288.846,240,315.29,240,346V451z M414.426,142.605C418.594,149.426,421,157.437,421,166v30
			c0,24.813-20.187,45-45,45c-20.072,0-37.111-13.211-42.892-31.393C370.457,203.474,401.404,177.64,414.426,142.605z M376,61
			c8.271,0,15,6.729,15,15s-6.729,15-15,15s-15-6.729-15-15S367.729,61,376,61z M331,166c0-24.813,20.187-45,45-45
			c4.542,0,8.927,0.683,13.064,1.94c-6.63,28.416-29.669,50.618-58.064,56.507V166z M361,451h-91V346
			c0-30.489,18.542-56.769,45.074-68.484L361,322.322V451z M351.355,271h49.291L376,295.044L351.355,271z M482,451h-91v-60h45
			c8.284,0,15-6.716,15-15s-6.716-15-15-15h-45v-38.678l45.926-44.806C463.458,289.231,482,315.511,482,346V451z"/>
	</g>
</g>
<g>
</g>
<g>
</g>
<g>
</g>
<g>
</g>
<g>
</g>
<g>
</g>
<g>
</g>
<g>
</g>
<g>
</g>
<g>
</g>
<g>
</g>
<g>
</g>
<g>
</g>
<g>
</g>
<g>
</g>
</svg>
