<?xml version="1.0" encoding="UTF-8" standalone="no"?>
<!-- Created with Inkscape (http://www.inkscape.org/) -->

<svg
   version="1.1"
   id="svg9"
   xml:space="preserve"
   width="682.66669"
   height="682.66669"
   viewBox="0 0 682.66669 682.66669"
   xmlns="http://www.w3.org/2000/svg"
   xmlns:svg="http://www.w3.org/2000/svg"><defs
     id="defs13"><clipPath
       clipPathUnits="userSpaceOnUse"
       id="clipPath23"><path
         d="M 0,512 H 512 V 0 H 0 Z"
         id="path21" /></clipPath></defs><g
     id="g15"
     transform="matrix(1.3333333,0,0,-1.3333333,0,682.66667)"><g
       id="g17"><g
         id="g19"
         clip-path="url(#clipPath23)"><g
           id="g25"
           transform="translate(316,195)"><path
             d="m 0,0 v 182 c 0,33.137 -26.863,60 -60,60 -33.137,0 -60,-26.863 -60,-60 V 0 h -60 v 182 c 0,66.167 53.833,120 120,120 C 6.167,302 60,248.167 60,182 V 0 Z"
             style="fill:none;stroke:#000000;stroke-width:30;stroke-linecap:butt;stroke-linejoin:miter;stroke-miterlimit:10;stroke-dasharray:none;stroke-opacity:1"
             id="path27" /></g><g
           id="g29"
           transform="translate(286,135)"><path
             d="m 0,0 c 0,-16.569 -13.432,-30 -30,-30 -16.568,0 -30,13.431 -30,30 0,16.569 13.432,30 30,30 C -13.432,30 0,16.569 0,0 Z"
             style="fill:none;stroke:#000000;stroke-width:30;stroke-linecap:butt;stroke-linejoin:miter;stroke-miterlimit:10;stroke-dasharray:none;stroke-opacity:1"
             id="path31" /></g><g
           id="g33"
           transform="translate(316,15)"><path
             d="M 0,0 C 0,33.137 -26.863,60 -60,60 -93.137,60 -120,33.137 -120,0 Z"
             style="fill:none;stroke:#000000;stroke-width:30;stroke-linecap:butt;stroke-linejoin:miter;stroke-miterlimit:10;stroke-dasharray:none;stroke-opacity:1"
             id="path35" /></g><g
           id="g37"
           transform="translate(376,255)"><path
             d="M 0,0 H -60"
             style="fill:none;stroke:#000000;stroke-width:30;stroke-linecap:butt;stroke-linejoin:miter;stroke-miterlimit:10;stroke-dasharray:none;stroke-opacity:1"
             id="path39" /></g><g
           id="g41"
           transform="translate(196,255)"><path
             d="M 0,0 H -60"
             style="fill:none;stroke:#000000;stroke-width:30;stroke-linecap:butt;stroke-linejoin:miter;stroke-miterlimit:10;stroke-dasharray:none;stroke-opacity:1"
             id="path43" /></g><g
           id="g45"
           transform="translate(406,6)"><path
             d="m 0,0 -30,69 h 60 l -60,75"
             style="fill:none;stroke:#000000;stroke-width:30;stroke-linecap:butt;stroke-linejoin:miter;stroke-miterlimit:10;stroke-dasharray:none;stroke-opacity:1"
             id="path47" /></g><g
           id="g49"
           transform="translate(106,6)"><path
             d="m 0,0 30,69 h -60 l 60,75"
             style="fill:none;stroke:#000000;stroke-width:30;stroke-linecap:butt;stroke-linejoin:miter;stroke-miterlimit:10;stroke-dasharray:none;stroke-opacity:1"
             id="path51" /></g></g></g></g></svg>
