<svg xmlns="http://www.w3.org/2000/svg" width="20" height="20" viewBox="0 0 20 20">
  <path id="icons8-microsoft-excel" d="M13.9,4l-.078.026L4.651,6.057,4,6.214V21.786l.651.156,9.167,2.031L13.9,24h1.771V21.5H24V6.5H15.667V4ZM14,5.693V22.307L5.667,20.484V7.516Zm1.667,2.474h6.667V19.833H15.667V18.167h1.667V16.5H15.667v-.833h1.667V14H15.667v-.833h1.667V11.5H15.667v-.833h1.667V9H15.667Zm2.5.833v1.667H21.5V9Zm-5.7.833-1.9.234-1.042,2.24c-.111.322-.192.566-.234.729H9.26a4.972,4.972,0,0,0-.208-.7l-.521-1.927-1.771.208-.078.052L8.167,14,6.5,17.333l1.8.208.729-2.057a5.41,5.41,0,0,0,.182-.6h.026a2.939,2.939,0,0,0,.13.573l1.12,2.448,2.031.26L10.3,13.974Zm5.7,1.667v1.667H21.5V11.5Zm0,2.5v1.667H21.5V14Zm0,2.5v1.667H21.5V16.5Z" transform="translate(-4 -4)" fill="#3e77aa"/>
</svg>
