<svg xmlns="http://www.w3.org/2000/svg" width="20" height="13.857" viewBox="0 0 20 13.857">
  <path id="visibility_FILL0_wght400_GRAD0_opsz48" d="M12.35,18.855a3.9,3.9,0,0,0,3.926-3.926A3.9,3.9,0,0,0,12.35,11a3.9,3.9,0,0,0-3.926,3.926,3.9,3.9,0,0,0,3.926,3.926Zm0-1.339a2.6,2.6,0,0,1-1.836-4.423,2.621,2.621,0,0,1,3.672,0,2.587,2.587,0,0,1-1.836,4.423Zm0,4.342a10.311,10.311,0,0,1-5.808-1.732,11.689,11.689,0,0,1-4.053-4.573.9.9,0,0,1-.1-.277,1.749,1.749,0,0,1,0-.693.9.9,0,0,1,.1-.277A11.689,11.689,0,0,1,6.542,9.732,10.311,10.311,0,0,1,12.35,8a10.311,10.311,0,0,1,5.808,1.732A11.689,11.689,0,0,1,22.211,14.3a.9.9,0,0,1,.1.277,1.749,1.749,0,0,1,0,.693.9.9,0,0,1-.1.277,11.689,11.689,0,0,1-4.053,4.573A10.311,10.311,0,0,1,12.35,21.857ZM12.35,14.928Zm0,5.543a9.287,9.287,0,0,0,5.139-1.513,9.816,9.816,0,0,0,3.568-4.03,9.816,9.816,0,0,0-3.568-4.03,9.484,9.484,0,0,0-10.277,0,9.981,9.981,0,0,0-3.591,4.03,9.981,9.981,0,0,0,3.591,4.03A9.287,9.287,0,0,0,12.35,20.471Z" transform="translate(-2.35 -8)" fill="currentColor"/>
</svg>
