<svg xmlns="http://www.w3.org/2000/svg" xmlns:xlink="http://www.w3.org/1999/xlink" width="29.048" height="30" viewBox="0 0 29.048 30">
  <defs>
    <linearGradient id="linear-gradient" x1="0.914" y1="0.155" x2="0.083" y2="0.932" gradientUnits="objectBoundingBox">
      <stop offset="0.048" stop-color="#fff44f"/>
      <stop offset="0.111" stop-color="#ffe847"/>
      <stop offset="0.225" stop-color="#ffc830"/>
      <stop offset="0.368" stop-color="#ff980e"/>
      <stop offset="0.401" stop-color="#ff8b16"/>
      <stop offset="0.462" stop-color="#ff672a"/>
      <stop offset="0.534" stop-color="#ff3647"/>
      <stop offset="0.705" stop-color="#e31587"/>
    </linearGradient>
    <radialGradient id="radial-gradient" cx="0.865" cy="-0.127" r="1.284" gradientUnits="objectBoundingBox">
      <stop offset="0.129" stop-color="#ffbd4f"/>
      <stop offset="0.186" stop-color="#ffac31"/>
      <stop offset="0.247" stop-color="#ff9d17"/>
      <stop offset="0.283" stop-color="#ff980e"/>
      <stop offset="0.403" stop-color="#ff563b"/>
      <stop offset="0.467" stop-color="#ff3750"/>
      <stop offset="0.71" stop-color="#f5156c"/>
      <stop offset="0.782" stop-color="#eb0878"/>
      <stop offset="0.86" stop-color="#e50080"/>
    </radialGradient>
    <radialGradient id="radial-gradient-2" cx="0.478" cy="0.397" r="1.284" gradientUnits="objectBoundingBox">
      <stop offset="0.3" stop-color="#960e18"/>
      <stop offset="0.351" stop-color="#b11927" stop-opacity="0.741"/>
      <stop offset="0.435" stop-color="#db293d" stop-opacity="0.341"/>
      <stop offset="0.497" stop-color="#f5334b" stop-opacity="0.094"/>
      <stop offset="0.53" stop-color="#ff3750" stop-opacity="0"/>
    </radialGradient>
    <radialGradient id="radial-gradient-3" cx="0.515" cy="-0.285" r="1.855" gradientUnits="objectBoundingBox">
      <stop offset="0.132" stop-color="#fff44f"/>
      <stop offset="0.252" stop-color="#ffdc3e"/>
      <stop offset="0.506" stop-color="#ff9d12"/>
      <stop offset="0.526" stop-color="#ff980e"/>
    </radialGradient>
    <radialGradient id="radial-gradient-4" cx="0.193" cy="1.101" r="1.019" gradientUnits="objectBoundingBox">
      <stop offset="0.353" stop-color="#3a8ee6"/>
      <stop offset="0.472" stop-color="#5c79f0"/>
      <stop offset="0.669" stop-color="#9059ff"/>
      <stop offset="1" stop-color="#c139e6"/>
    </radialGradient>
    <radialGradient id="radial-gradient-5" cx="0.568" cy="0.36" r="0.541" gradientUnits="objectBoundingBox">
      <stop offset="0.206" stop-color="#9059ff" stop-opacity="0"/>
      <stop offset="0.278" stop-color="#8c4ff3" stop-opacity="0.063"/>
      <stop offset="0.747" stop-color="#7716a8" stop-opacity="0.451"/>
      <stop offset="0.975" stop-color="#6e008b" stop-opacity="0.6"/>
    </radialGradient>
    <radialGradient id="radial-gradient-6" cx="2.085" cy="-0.994" r="2.922" gradientUnits="objectBoundingBox">
      <stop offset="0" stop-color="#ffe226"/>
      <stop offset="0.121" stop-color="#ffdb27"/>
      <stop offset="0.295" stop-color="#ffc82a"/>
      <stop offset="0.502" stop-color="#ffa930"/>
      <stop offset="0.732" stop-color="#ff7e37"/>
      <stop offset="0.792" stop-color="#ff7139"/>
    </radialGradient>
    <radialGradient id="radial-gradient-7" cx="0.797" cy="-0.409" r="1.938" gradientUnits="objectBoundingBox">
      <stop offset="0.113" stop-color="#fff44f"/>
      <stop offset="0.456" stop-color="#ff980e"/>
      <stop offset="0.622" stop-color="#ff5634"/>
      <stop offset="0.716" stop-color="#ff3647"/>
      <stop offset="0.904" stop-color="#e31587"/>
    </radialGradient>
    <radialGradient id="radial-gradient-8" cx="0.08" cy="-0.104" r="1.651" gradientUnits="objectBoundingBox">
      <stop offset="0" stop-color="#fff44f"/>
      <stop offset="0.06" stop-color="#ffe847"/>
      <stop offset="0.168" stop-color="#ffc830"/>
      <stop offset="0.304" stop-color="#ff980e"/>
      <stop offset="0.356" stop-color="#ff8b16"/>
      <stop offset="0.455" stop-color="#ff672a"/>
      <stop offset="0.57" stop-color="#ff3647"/>
      <stop offset="0.737" stop-color="#e31587"/>
    </radialGradient>
    <radialGradient id="radial-gradient-9" cx="0.175" cy="-0.421" r="2.387" gradientUnits="objectBoundingBox">
      <stop offset="0.137" stop-color="#fff44f"/>
      <stop offset="0.48" stop-color="#ff980e"/>
      <stop offset="0.592" stop-color="#ff5634"/>
      <stop offset="0.655" stop-color="#ff3647"/>
      <stop offset="0.904" stop-color="#e31587"/>
    </radialGradient>
    <radialGradient id="radial-gradient-10" cx="1.562" cy="-0.451" r="3.128" gradientUnits="objectBoundingBox">
      <stop offset="0.094" stop-color="#fff44f"/>
      <stop offset="0.231" stop-color="#ffe141"/>
      <stop offset="0.509" stop-color="#ffaf1e"/>
      <stop offset="0.626" stop-color="#ff980e"/>
    </radialGradient>
    <linearGradient id="linear-gradient-2" x1="0.904" y1="0.151" x2="0.197" y2="0.836" gradientUnits="objectBoundingBox">
      <stop offset="0.167" stop-color="#fff44f" stop-opacity="0.8"/>
      <stop offset="0.266" stop-color="#fff44f" stop-opacity="0.635"/>
      <stop offset="0.489" stop-color="#fff44f" stop-opacity="0.216"/>
      <stop offset="0.6" stop-color="#fff44f" stop-opacity="0"/>
    </linearGradient>
  </defs>
  <g id="Firefox_logo__2019" data-name="Firefox_logo,_2019" transform="translate(-0.004 0.018)">
    <path id="Path_47480" data-name="Path 47480" d="M28,10.067a8.16,8.16,0,0,0-2.917-3.681A15.109,15.109,0,0,1,26.555,10.8l0,.024c-1.644-4.1-4.431-5.752-6.708-9.35-.115-.182-.23-.364-.343-.557-.064-.11-.116-.209-.16-.3A2.646,2.646,0,0,1,19.129.04.038.038,0,0,0,19.1,0a.052.052,0,0,0-.027,0s0,0-.007,0l-.011.006L19.057,0a10.606,10.606,0,0,0-5.005,8.078,7.275,7.275,0,0,0-4,1.542,4.348,4.348,0,0,0-.375-.284,6.742,6.742,0,0,1-.041-3.554,10.768,10.768,0,0,0-3.5,2.705H6.126c-.576-.73-.536-3.139-.5-3.642a2.6,2.6,0,0,0-.485.258A10.588,10.588,0,0,0,3.716,6.323,12.7,12.7,0,0,0,2.357,7.954v0a12.28,12.28,0,0,0-1.951,4.4l-.02.1c-.027.128-.126.769-.143.908a.306.306,0,0,1,0,.032A13.86,13.86,0,0,0,0,15.4v.075a14.542,14.542,0,0,0,28.871,2.459c.024-.188.044-.373.066-.563a14.955,14.955,0,0,0-.943-7.3ZM11.239,21.45c.068.033.132.068.2.1l.01.006q-.106-.051-.212-.105Zm3.331-8.772,11.987-1.851v-.014l0,.015Z" transform="translate(0 -0.012)" fill="url(#linear-gradient)"/>
    <path id="Path_47481" data-name="Path 47481" d="M28,20.394a8.16,8.16,0,0,0-2.917-3.681,15.109,15.109,0,0,1,1.473,4.412v.014l0,.015a13.169,13.169,0,0,1-.452,9.815A12.5,12.5,0,0,1,14.1,38.031,14.64,14.64,0,0,1,.143,26.145a6.271,6.271,0,0,1,.1-2.426,10.836,10.836,0,0,0-.234,2.007V25.8A14.542,14.542,0,0,0,28.883,28.26c.024-.188.044-.373.066-.563a14.955,14.955,0,0,0-.943-7.3Z" transform="translate(-0.005 -10.338)" fill="url(#radial-gradient)"/>
    <path id="Path_47482" data-name="Path 47482" d="M28,20.394a8.16,8.16,0,0,0-2.917-3.681,15.109,15.109,0,0,1,1.473,4.412v.014l0,.015a13.169,13.169,0,0,1-.452,9.815A12.5,12.5,0,0,1,14.1,38.031,14.64,14.64,0,0,1,.143,26.145a6.271,6.271,0,0,1,.1-2.426,10.836,10.836,0,0,0-.234,2.007V25.8A14.542,14.542,0,0,0,28.883,28.26c.024-.188.044-.373.066-.563a14.955,14.955,0,0,0-.943-7.3Z" transform="translate(-0.005 -10.338)" fill="url(#radial-gradient-2)"/>
    <path id="Path_47483" data-name="Path 47483" d="M43.645,11.774c.032.022.061.044.09.066a7.916,7.916,0,0,0-1.351-1.762A7.347,7.347,0,0,1,41.763.008L41.768,0a10.606,10.606,0,0,0-5.005,8.078c.17-.012.338-.026.511-.026a7.339,7.339,0,0,1,6.371,3.721Z" transform="translate(-22.715 -0.011)" fill="url(#radial-gradient-3)"/>
    <path id="Path_47484" data-name="Path 47484" d="M27.519,25.7a3.51,3.51,0,0,1-1.749,1.609c-4.135,0-4.806,2.5-4.806,2.5a6.137,6.137,0,0,0,3.425,4.757c.081.042.163.08.245.117q.213.095.427.175a6.469,6.469,0,0,0,1.892.365,6.018,6.018,0,0,0,3.421-11.282,5.02,5.02,0,0,1,3.506.851,7.339,7.339,0,0,0-6.371-3.721c-.173,0-.341.014-.511.026a7.275,7.275,0,0,0-4,1.542c.222.188.472.438,1,.958.987.972,3.517,1.979,3.523,2.1Z" transform="translate(-12.952 -13.032)" fill="url(#radial-gradient-4)"/>
    <path id="Path_47485" data-name="Path 47485" d="M27.519,25.7a3.51,3.51,0,0,1-1.749,1.609c-4.135,0-4.806,2.5-4.806,2.5a6.137,6.137,0,0,0,3.425,4.757c.081.042.163.08.245.117q.213.095.427.175a6.469,6.469,0,0,0,1.892.365,6.018,6.018,0,0,0,3.421-11.282,5.02,5.02,0,0,1,3.506.851,7.339,7.339,0,0,0-6.371-3.721c-.173,0-.341.014-.511.026a7.275,7.275,0,0,0-4,1.542c.222.188.472.438,1,.958.987.972,3.517,1.979,3.523,2.1Z" transform="translate(-12.952 -13.032)" fill="url(#radial-gradient-5)"/>
    <path id="Path_47486" data-name="Path 47486" d="M19.269,18.5c.118.075.215.14.3.2a6.742,6.742,0,0,1-.041-3.554,10.768,10.768,0,0,0-3.5,2.705A7.162,7.162,0,0,1,19.269,18.5Z" transform="translate(-9.902 -9.366)" fill="url(#radial-gradient-6)"/>
    <path id="Path_47487" data-name="Path 47487" d="M.229,23.666A14.639,14.639,0,0,0,14.183,35.552,12.5,12.5,0,0,0,26.2,28.491a13.169,13.169,0,0,0,.452-9.815v-.014c0-.011,0-.017,0-.014l0,.024c.516,3.368-1.2,6.63-3.876,8.84l-.008.019c-5.219,4.251-10.213,2.564-11.222,1.876q-.106-.051-.212-.105A6.608,6.608,0,0,1,7.3,22.7,3.734,3.734,0,0,1,3.86,20.531a5.485,5.485,0,0,1,5.346-.215,7.241,7.241,0,0,0,5.459.215c-.006-.118-2.536-1.126-3.523-2.1-.527-.52-.777-.77-1-.958a4.348,4.348,0,0,0-.375-.284c-.086-.059-.183-.123-.3-.2a7.16,7.16,0,0,0-3.24-.65H6.221c-.576-.73-.536-3.139-.5-3.642a2.6,2.6,0,0,0-.485.258,10.588,10.588,0,0,0-1.421,1.217A12.7,12.7,0,0,0,2.447,15.8v0A12.28,12.28,0,0,0,.5,20.207a10.884,10.884,0,0,0-.269,3.46Z" transform="translate(-0.094 -7.858)" fill="url(#radial-gradient-7)"/>
    <path id="Path_47488" data-name="Path 47488" d="M47.7,10.067a7.916,7.916,0,0,1,1.351,1.763c.08.06.155.12.218.179,3.3,3.039,1.569,7.335,1.441,7.639,2.678-2.207,4.39-5.47,3.876-8.84-1.645-4.1-4.435-5.755-6.708-9.354-.115-.182-.23-.364-.343-.557-.064-.11-.116-.209-.16-.3a2.646,2.646,0,0,1-.217-.576.038.038,0,0,0-.033-.038.052.052,0,0,0-.027,0s0,0-.007,0l-.011.006A7.342,7.342,0,0,0,47.7,10.06Z" transform="translate(-28.032)" fill="url(#radial-gradient-8)"/>
    <path id="Path_47489" data-name="Path 47489" d="M39.73,29.622c-.063-.058-.138-.118-.218-.179-.03-.022-.059-.044-.09-.066a5.02,5.02,0,0,0-3.506-.851,6.018,6.018,0,0,1-3.421,11.282,6.468,6.468,0,0,1-1.892-.365q-.213-.08-.427-.175c-.082-.038-.164-.075-.245-.117l.01.006c1.011.69,6,2.376,11.222-1.876l.008-.019c.13-.3,1.858-4.6-1.441-7.639Z" transform="translate(-18.492 -17.611)" fill="url(#radial-gradient-9)"/>
    <path id="Path_47490" data-name="Path 47490" d="M14.091,35.979s.671-2.5,4.806-2.5a3.505,3.505,0,0,0,1.749-1.609,7.241,7.241,0,0,1-5.459-.215,5.485,5.485,0,0,0-5.346.215,3.734,3.734,0,0,0,3.445,2.167,6.612,6.612,0,0,0,4.03,6.6c.068.033.132.068.2.1a6.138,6.138,0,0,1-3.425-4.757Z" transform="translate(-6.078 -19.204)" fill="url(#radial-gradient-10)"/>
    <path id="Path_47491" data-name="Path 47491" d="M28,10.067a8.16,8.16,0,0,0-2.917-3.681A15.109,15.109,0,0,1,26.556,10.8l0,.024c-1.644-4.1-4.431-5.752-6.708-9.35-.115-.182-.23-.364-.343-.557-.064-.11-.116-.209-.16-.3A2.646,2.646,0,0,1,19.131.04.038.038,0,0,0,19.1,0a.052.052,0,0,0-.027,0s0,0-.007,0l-.011.006L19.058,0a10.606,10.606,0,0,0-5.005,8.078c.17-.012.338-.026.511-.026a7.339,7.339,0,0,1,6.371,3.721,5.02,5.02,0,0,0-3.506-.851,6.018,6.018,0,0,1-3.421,11.282,6.468,6.468,0,0,1-1.892-.365q-.213-.08-.427-.175c-.082-.038-.164-.075-.245-.117l.01.006q-.106-.051-.212-.105c.068.033.132.068.2.1a6.14,6.14,0,0,1-3.425-4.757s.671-2.5,4.806-2.5a3.505,3.505,0,0,0,1.749-1.609c-.006-.118-2.536-1.126-3.523-2.1-.527-.52-.777-.77-1-.958a4.349,4.349,0,0,0-.375-.284,6.742,6.742,0,0,1-.041-3.554,10.768,10.768,0,0,0-3.5,2.705H6.128c-.576-.73-.536-3.139-.5-3.642a2.6,2.6,0,0,0-.485.258A10.588,10.588,0,0,0,3.718,6.326,12.7,12.7,0,0,0,2.359,7.957v0a12.28,12.28,0,0,0-1.951,4.4l-.02.1c-.027.128-.15.778-.168.917A16.918,16.918,0,0,0,.006,15.4v.075a14.542,14.542,0,0,0,28.871,2.459c.024-.188.044-.373.066-.563a14.955,14.955,0,0,0-.943-7.3Zm-1.443.747,0,.015Z" transform="translate(-0.001 -0.012)" fill="url(#linear-gradient-2)"/>
  </g>
</svg>
