<svg xmlns="http://www.w3.org/2000/svg" width="20.5" height="16.5" viewBox="0 0 20.5 16.5">
  <path id="folder_icon_125280" d="M-888.5,239.769v-.488h0v-2.012a.492.492,0,0,0-.506-.488l-9.181-.02-1.4-1.5a.562.562,0,0,0-.384-.156h-8.028a.492.492,0,0,0-.506.488v15.023a.492.492,0,0,0,.506.488h18.969a.492.492,0,0,0,.506-.488l.02-10.335h0Zm-8.776-2.032,7.765.02v1.524h-6.35l-.586-.625Zm7.745,12.366h-17.958V236.057h7.3l3.741,4.024a.563.563,0,0,0,.384.156h6.572Z" transform="translate(908.75 -234.85)" fill="#3e77aa" stroke="#3e77aa" stroke-width="0.5"/>
</svg>
