<svg xmlns="http://www.w3.org/2000/svg" xmlns:xlink="http://www.w3.org/1999/xlink" width="30" height="30" viewBox="0 0 30 30">
  <defs>
    <linearGradient id="linear-gradient" y1="0.5" x2="1" y2="0.5" gradientUnits="objectBoundingBox">
      <stop offset="0" stop-color="#d93025"/>
      <stop offset="1" stop-color="#ea4335"/>
    </linearGradient>
    <linearGradient id="linear-gradient-2" x1="-0.136" y1="0.991" x2="0.729" y2="-0.009" gradientUnits="objectBoundingBox">
      <stop offset="0" stop-color="#fcc934"/>
      <stop offset="1" stop-color="#fbbc04"/>
    </linearGradient>
    <linearGradient id="linear-gradient-3" x1="0.773" y1="0.958" x2="0.169" y2="-0.042" gradientUnits="objectBoundingBox">
      <stop offset="0" stop-color="#1e8e3e"/>
      <stop offset="1" stop-color="#34a853"/>
    </linearGradient>
  </defs>
  <g id="Google_Chrome_icon__February_2022_" data-name="Google_Chrome_icon_(February_2022)" transform="translate(0.004 0.004)">
    <circle id="Ellipse_1160" data-name="Ellipse 1160" cx="7.499" cy="7.499" r="7.499" transform="translate(7.497 7.494)" fill="#fff"/>
    <path id="Path_47500" data-name="Path 47500" d="M2.008,22.495A15,15,0,1,0,7.5,2.008,15,15,0,0,0,2.008,22.495ZM21.49,11.247A7.5,7.5,0,1,1,11.247,8.5,7.5,7.5,0,0,1,21.49,11.247Z" transform="translate(0 0)" fill="none"/>
    <path id="Path_47501" data-name="Path 47501" d="M16.2,7.5H29.191a14.994,14.994,0,0,0-25.973,0L9.711,18.747h.006A7.489,7.489,0,0,1,16.2,7.5Z" transform="translate(-1.209 -0.001)" fill="url(#linear-gradient)"/>
    <circle id="Ellipse_1161" data-name="Ellipse 1161" cx="5.937" cy="5.937" r="5.937" transform="translate(9.059 9.059)" fill="#1a73e8"/>
    <path id="Path_47502" data-name="Path 47502" d="M30.492,23.251,24,34.5A14.994,14.994,0,0,0,36.984,12H24l0,.006a7.489,7.489,0,0,1,6.5,11.242Z" transform="translate(-9.003 -4.504)" fill="url(#linear-gradient-2)"/>
    <path id="Path_47503" data-name="Path 47503" d="M8.5,23.252,2.012,12.006A14.994,14.994,0,0,0,15,34.5l6.493-11.246,0,0a7.49,7.49,0,0,1-12.984,0Z" transform="translate(-0.002 -4.505)" fill="url(#linear-gradient-3)"/>
  </g>
</svg>
