<svg xmlns="http://www.w3.org/2000/svg" width="20" height="20" viewBox="0 0 20 20">
  <path id="help_FILL0_wght400_GRAD0_opsz48" d="M14.1,19.825a.939.939,0,1,0-.675-.275A.918.918,0,0,0,14.1,19.825Zm-.875-3.65H14.7a4.092,4.092,0,0,1,.162-1.188,2.944,2.944,0,0,1,1.012-1.238,4.374,4.374,0,0,0,1.1-1.275A2.935,2.935,0,0,0,17.3,11.1a2.76,2.76,0,0,0-.862-2.125,3.23,3.23,0,0,0-2.288-.8,3.864,3.864,0,0,0-2.163.613,3.5,3.5,0,0,0-1.362,1.688l1.325.5a2.333,2.333,0,0,1,.825-1.087,2.2,2.2,0,0,1,1.3-.388,2,2,0,0,1,1.375.462,1.511,1.511,0,0,1,.525,1.188,1.838,1.838,0,0,1-.325,1.038A4.98,4.98,0,0,1,14.7,13.2a5.085,5.085,0,0,0-1.112,1.288,3.4,3.4,0,0,0-.363,1.688ZM14,24a9.676,9.676,0,0,1-3.875-.787,10.075,10.075,0,0,1-5.338-5.337,9.989,9.989,0,0,1,0-7.775,9.994,9.994,0,0,1,2.15-3.175,10.251,10.251,0,0,1,3.187-2.138,9.989,9.989,0,0,1,7.775,0A9.984,9.984,0,0,1,23.213,10.1a9.989,9.989,0,0,1,0,7.775,10.251,10.251,0,0,1-2.137,3.187,9.994,9.994,0,0,1-3.175,2.15A9.738,9.738,0,0,1,14,24Zm0-1.5a8.179,8.179,0,0,0,6.025-2.487A8.212,8.212,0,0,0,22.5,14a8.2,8.2,0,0,0-2.475-6.025A8.2,8.2,0,0,0,14,5.5,8.212,8.212,0,0,0,7.988,7.975,8.179,8.179,0,0,0,5.5,14a8.191,8.191,0,0,0,2.488,6.013A8.191,8.191,0,0,0,14,22.5ZM14,14Z" transform="translate(-4 -4)" fill="#221f1f" opacity="0.7"/>
</svg>
