<svg xmlns="http://www.w3.org/2000/svg" width="20.832" height="20.832" viewBox="0 0 20.832 20.832">
  <g id="rich_icon-icons.com_65031" transform="translate(-0.15 -0.153)">
    <path id="Path_47404" data-name="Path 47404" d="M10.416,20.835A10.416,10.416,0,1,1,20.832,10.419,10.428,10.428,0,0,1,10.416,20.835Zm0-20.03a9.614,9.614,0,1,0,9.614,9.614A9.625,9.625,0,0,0,10.416.805Zm3.946,10.363a1.282,1.282,0,0,0-1.281-1.292h-.164V9.362h.794a.552.552,0,1,0,0-1.1h-.794V7.3a.552.552,0,1,0-1.1,0v.958a1.327,1.327,0,0,0-1.4,1.342,1.3,1.3,0,0,0,1.4,1.376v.438h-.894a.552.552,0,0,0,0,1.1h.894v.954a.552.552,0,1,0,1.1,0v-.959A1.321,1.321,0,0,0,14.361,11.168ZM11.52,9.6c0-.086,0-.226.292-.239v.511C11.535,9.872,11.52,9.775,11.52,9.6Zm1.4,1.81V10.98h.142c.2.008.2.143.2.188C13.257,11.3,13.254,11.394,12.916,11.413Zm-3.253-.245A1.282,1.282,0,0,0,8.382,9.876H8.218V9.362h.794a.552.552,0,1,0,0-1.1H8.218V7.3a.552.552,0,0,0-1.1,0v.958A1.326,1.326,0,0,0,5.718,9.6a1.3,1.3,0,0,0,1.4,1.376v.438H6.22a.552.552,0,1,0,0,1.1h.894v.954a.552.552,0,0,0,1.1,0v-.959A1.321,1.321,0,0,0,9.663,11.168ZM6.821,9.6c0-.086,0-.226.292-.239v.511C6.837,9.872,6.821,9.775,6.821,9.6Zm1.4,1.81V10.98H8.36c.2.008.2.143.2.188C8.559,11.3,8.556,11.394,8.218,11.413Z" transform="translate(0.15 0.15)" fill="currentColor"/>
    <path id="Path_47440" data-name="Path 47440" d="M9.833,19.669a9.833,9.833,0,1,1,9.833-9.833A9.844,9.844,0,0,1,9.833,19.669ZM9.833.76a9.076,9.076,0,1,0,9.076,9.076A9.086,9.086,0,0,0,9.833.76Zm3.725,9.783a1.21,1.21,0,0,0-1.209-1.22h-.155V8.838h.749a.521.521,0,1,0,0-1.042h-.75V6.9a.521.521,0,1,0-1.042,0v.9A1.252,1.252,0,0,0,9.833,9.066a1.23,1.23,0,0,0,1.318,1.3v.413h-.844a.521.521,0,0,0,0,1.042h.844v.9a.521.521,0,1,0,1.042,0v-.906A1.247,1.247,0,0,0,13.558,10.543ZM10.876,9.066c0-.081,0-.213.276-.226v.482C10.89,9.32,10.876,9.228,10.876,9.066Zm1.318,1.708v-.409h.134c.188.008.188.135.188.178C12.515,10.665,12.512,10.757,12.193,10.774Zm-3.071-.231a1.21,1.21,0,0,0-1.209-1.22H7.758V8.838h.749a.521.521,0,1,0,0-1.042H7.758V6.9a.521.521,0,1,0-1.043,0v.9A1.252,1.252,0,0,0,5.4,9.066a1.23,1.23,0,0,0,1.318,1.3v.413H5.872a.521.521,0,1,0,0,1.042h.844v.9a.521.521,0,0,0,1.043,0v-.906A1.247,1.247,0,0,0,9.122,10.543ZM6.439,9.066c0-.081,0-.213.276-.226v.482C6.454,9.32,6.439,9.228,6.439,9.066Zm1.319,1.708v-.409h.134c.188.008.188.135.188.178C8.08,10.665,8.077,10.757,7.758,10.774Z" transform="translate(0.733 0.733)" fill="currentColor"/>
  </g>
</svg>
