<svg xmlns="http://www.w3.org/2000/svg" width="30" height="35.303" viewBox="0 0 30 35.303">
  <path id="Linux_Logo_in_Linux_Libertine_Font" d="M19.37,14.106a.114.114,0,0,1-.117.117h-.117c-.117,0-.117-.117-.234-.234a.408.408,0,0,1-.117-.234c0-.117,0-.117.117-.117l.234.117c.117.117.234.234.234.351m-2.1-1.169c0-.584-.234-.935-.584-.935a.114.114,0,0,1-.117.117v.234h.351c0,.234.117.351.117.584h.234m4.091-.584c.234,0,.351.234.468.584h.234a.429.429,0,0,1-.117-.351.429.429,0,0,0-.117-.351c-.117-.117-.234-.234-.351-.234a.408.408,0,0,1-.234.117c0,.117.117.117.117.234m-3.507,1.87c-.117,0-.117,0-.117-.117a.429.429,0,0,1,.117-.351.512.512,0,0,0,.351-.117.114.114,0,0,1,.117.117c0,.117-.117.234-.351.468H17.85m-1.286-.117c-.468-.234-.584-.584-.584-1.169a.986.986,0,0,1,.234-.818.643.643,0,0,1,.584-.351c.234,0,.351.117.584.351a3.413,3.413,0,0,1,.234,1.052V13.4h.117v-.117c.117,0,.117-.234.117-.7a1.737,1.737,0,0,0-.234-1.052,1.041,1.041,0,0,0-.935-.584.879.879,0,0,0-.818.584,2.749,2.749,0,0,0-.281,1.4,1.915,1.915,0,0,0,.631,1.4c.117-.117.234-.117.351-.234M31.175,30.587c.117,0,.117-.047.117-.152a1.271,1.271,0,0,0-.468-.9,2.854,2.854,0,0,0-1.636-.666c-.117-.012-.234-.012-.234-.012a.8.8,0,0,0-.234-.023c-.117-.012-.351-.035-.468-.058a9.294,9.294,0,0,0,.468-2.887,4.583,4.583,0,0,0-.7-2.688A2.37,2.37,0,0,0,26.5,22.03c-.117.117-.117.117-.117.234a2.926,2.926,0,0,1,1.52,1.4A5.572,5.572,0,0,1,28.37,26a8.168,8.168,0,0,1-.584,2.864,2.646,2.646,0,0,0-1.286,1.3c0,.105,0,.164.117.164a1.383,1.383,0,0,0,.234-.3c.234-.2.351-.4.584-.6a1.737,1.737,0,0,1,.935-.3,3.971,3.971,0,0,1,1.52.245,1.415,1.415,0,0,1,.818.5q.175.263.351.491a.267.267,0,0,0,.117.222M20.422,13.638a.876.876,0,0,1-.117-.584A1.571,1.571,0,0,1,20.539,12a1.01,1.01,0,0,1,.7-.351,1.183,1.183,0,0,1,.818.468,2.751,2.751,0,0,1,.234.935.94.94,0,0,1-.7,1.052.408.408,0,0,0,.234.117c.234,0,.351.117.584.234a10.373,10.373,0,0,0,.234-1.753,2.652,2.652,0,0,0-.351-1.52,1.5,1.5,0,0,0-1.169-.468,1.885,1.885,0,0,0-1.052.351,1.554,1.554,0,0,0-.351.935,3.236,3.236,0,0,0,.351,1.52c.117,0,.234.117.351.117m1.4,1.87a6.839,6.839,0,0,1-3.623,1.52,3.712,3.712,0,0,1-2.338-.935,2.555,2.555,0,0,0,.351.584l.7.7a2.308,2.308,0,0,0,1.636.7,5.579,5.579,0,0,0,2.922-1.286l1.052-.7a1.183,1.183,0,0,0,.468-.818c0-.117,0-.234-.117-.234-.117-.234-.7-.584-1.87-.935a6.829,6.829,0,0,0-2.338-.7,4.352,4.352,0,0,0-1.753.7c-.7.468-1.169.935-1.169,1.4a1.447,1.447,0,0,1,.234.351,3.39,3.39,0,0,0,2.1.935,6.321,6.321,0,0,0,3.623-1.636v.234a.114.114,0,0,1,.117.117m2.688,23.611a2.5,2.5,0,0,0,2.922,1.216,1.526,1.526,0,0,0,.584-.222c.117-.082.234-.164.351-.257a1.4,1.4,0,0,0,.351-.2l1.987-1.718a7.87,7.87,0,0,1,1.52-.982,10.075,10.075,0,0,1,1.169-.573,2.086,2.086,0,0,0,.818-.421,1.206,1.206,0,0,0,.234-.678,1.047,1.047,0,0,0-.468-.783,2.378,2.378,0,0,0-.7-.4,2.7,2.7,0,0,1-.818-.584,3.152,3.152,0,0,1-.584-1.274l-.117-.678c-.117-.316-.117-.549-.234-.678,0-.035,0-.047-.117-.047a.641.641,0,0,0-.468.3c-.234.2-.468.421-.7.655-.117.234-.468.444-.7.643a2.1,2.1,0,0,1-.935.3,1.859,1.859,0,0,1-1.753-.76,4.26,4.26,0,0,1-.468-1.3c-.234-.2-.351-.3-.584-.3-.584,0-.818.608-.818,1.835v3.635a3.71,3.71,0,0,0-.117.7,4.108,4.108,0,0,0-.117,1.239l-.234,1.3v.02M7.564,38.5a19.177,19.177,0,0,1,3.752,1.018,12.5,12.5,0,0,0,2.595.783,2.551,2.551,0,0,0,2.057-1.062,1.73,1.73,0,0,0,.117-.8q0-1.657-2-4.2l-.795-1.064a11.048,11.048,0,0,1-.619-1.017,9.994,9.994,0,0,0-.643-1.052,3.156,3.156,0,0,0-.713-.807,2.4,2.4,0,0,0-1.04-.538,1.582,1.582,0,0,0-.994.479A1.43,1.43,0,0,0,9,30.968a.692.692,0,0,1-.222.491,2.131,2.131,0,0,1-.584.187c-.058,0-.164,0-.316.012H7.564a3.006,3.006,0,0,0-1.262.187,1.715,1.715,0,0,0-.444,1.134,5.336,5.336,0,0,0,.14.947,5.235,5.235,0,0,1,.14,1.029,2.733,2.733,0,0,1-.432,1.438,2.614,2.614,0,0,0-.444,1.143c.117.454.888.773,2.3.96m3.892-10.625a7.276,7.276,0,0,1,.643-2.747A7.7,7.7,0,0,1,13.35,22.9c-.023-.117-.082-.117-.175-.117l-.117-.117a8.951,8.951,0,0,0-1.239,2.338,6.95,6.95,0,0,0-.748,2.735,2.665,2.665,0,0,0,.362,1.379,8.271,8.271,0,0,0,1.858,1.66l1.239.807c1.321,1.145,2.022,1.94,2.022,2.408a.956.956,0,0,1-.468.76,1.106,1.106,0,0,1-.818.421c-.023,0-.035.023-.035.082,0,.012.117.245.362.7a3.586,3.586,0,0,0,2.946.994A7.088,7.088,0,0,0,24.618,33.8a2.346,2.346,0,0,0-.117-1.1v-.432a3.293,3.293,0,0,1,.351-1.707.927.927,0,0,1,.818-.549,1.157,1.157,0,0,1,.7.257,17.7,17.7,0,0,0,.117-2.384,10.082,10.082,0,0,0-.234-2.759,6.161,6.161,0,0,0-.584-1.753l-.7-1.052c-.234-.351-.351-.7-.584-1.052a5.023,5.023,0,0,1-.234-1.4c-.351-.584-.584-1.169-.935-1.753-.234-.584-.468-1.169-.7-1.636l-1.052.818A5.251,5.251,0,0,1,18.54,18.46a1.9,1.9,0,0,1-1.636-.584l-.7-.584a3.047,3.047,0,0,1-.351,1.286l-.736,1.4a7.13,7.13,0,0,0-.538,1.636,2.335,2.335,0,0,1-.105.468L13.6,23.836a10.337,10.337,0,0,0-1.426,4.722,5.078,5.078,0,0,0,.07.83,1.732,1.732,0,0,1-.783-1.52m8.369,11.057a8.045,8.045,0,0,0-3.507.614V39.5a2.625,2.625,0,0,1-2.151,1.064A8.942,8.942,0,0,1,11.48,39.9a31.744,31.744,0,0,0-3.261-.956c-.094-.027-.3-.067-.643-.12s-.631-.106-.9-.16a6.783,6.783,0,0,1-.83-.24,2.054,2.054,0,0,1-.7-.359.661.661,0,0,1-.241-.5,1.718,1.718,0,0,1,.119-.6c.075-.129.157-.257.238-.374a2.265,2.265,0,0,0,.2-.362,1.712,1.712,0,0,0,.164-.327,1.446,1.446,0,0,0,.117-.339,1.8,1.8,0,0,0,.047-.351c0-.117-.047-.468-.14-1.087a10.535,10.535,0,0,1-.14-1.157,1.781,1.781,0,0,1,.374-1.216,1.056,1.056,0,0,1,.76-.444H7.985a1.2,1.2,0,0,0,.514-.2c.082-.187.152-.339.2-.479s.082-.245.105-.292c.023-.07.047-.14.07-.2a1.614,1.614,0,0,1,.187-.269.707.707,0,0,1-.14-.456,1.192,1.192,0,0,1,.023-.316,4.217,4.217,0,0,1,.619-1.8l.409-.736A16.17,16.17,0,0,0,10.755,25a15.289,15.289,0,0,0,.643-2.1,5.813,5.813,0,0,1,1.333-2.455l.877-1.052a8.252,8.252,0,0,0,1.227-1.753,3.766,3.766,0,0,0,.339-1.52c0-.234-.058-.935-.187-2.1s-.175-2.338-.175-3.39a7.514,7.514,0,0,1,.222-1.987A4.156,4.156,0,0,1,15.852,7a3.136,3.136,0,0,1,1.52-1.169,7.771,7.771,0,0,1,2.455-.351,3.236,3.236,0,0,1,1.052.117,4.041,4.041,0,0,1,1.4.351,4.827,4.827,0,0,1,1.286.818,5.243,5.243,0,0,1,1.169,1.52,11.368,11.368,0,0,1,.584,2.338c.117.584.117,1.169.234,1.987,0,.7.117,1.169.117,1.52.117.351.117.818.234,1.4a4.187,4.187,0,0,0,.468,1.286,8.718,8.718,0,0,0,.818,1.4c.351.584.818,1.169,1.286,1.87a11.721,11.721,0,0,1,2.338,3.74,9.82,9.82,0,0,1,.935,4.313,7.944,7.944,0,0,1-.351,2.349.512.512,0,0,1,.468.257,3.279,3.279,0,0,1,.351,1.064l.117.865a1.375,1.375,0,0,0,.584.713,2.6,2.6,0,0,0,.818.526,3.8,3.8,0,0,1,.818.491,1.039,1.039,0,0,1,.351.736,1.137,1.137,0,0,1-.351.9,1.831,1.831,0,0,1-.818.5c-.234.117-.7.351-1.4.68a12.726,12.726,0,0,0-1.753,1.262l-1.169.995a6.477,6.477,0,0,1-1.286.982,2.557,2.557,0,0,1-1.286.316l-.818-.094a2.668,2.668,0,0,1-1.87-1.426,39.924,39.924,0,0,0-4.325-.339" transform="translate(-4.904 -5.479)"/>
</svg>
