<svg xmlns="http://www.w3.org/2000/svg" width="20" height="20" viewBox="0 0 20 20">
  <path id="Dashboard" d="M-18.445-12043.5a2.947,2.947,0,0,0,2.944-2.943,2.948,2.948,0,0,0-2.944-2.944,2.948,2.948,0,0,0-2.944,2.944,2.947,2.947,0,0,0,2.944,2.943m-8.166,0v-5.888H-32.5v5.888h5.891m11.11-11.109v-5.891h-5.888v5.891H-15.5m-11.11,0v-5.891H-32.5v5.891h5.891m8.166,12.609a4.442,4.442,0,0,1-4.444-4.443,4.443,4.443,0,0,1,4.444-4.444,4.443,4.443,0,0,1,4.444,4.444A4.442,4.442,0,0,1-18.445-12042Zm-7.668,0H-33a1,1,0,0,1-1-1v-6.89a1,1,0,0,1,1-1h6.887a1,1,0,0,1,1,1v6.89A1,1,0,0,1-26.112-12042ZM-15-12053.11h-6.89a1,1,0,0,1-1-1V-12061a1,1,0,0,1,1-1H-15a1,1,0,0,1,1,1v6.887A1,1,0,0,1-15-12053.11Zm-11.113,0H-33a1,1,0,0,1-1-1V-12061a1,1,0,0,1,1-1h6.887a1,1,0,0,1,1,1v6.887A1,1,0,0,1-26.112-12053.11Z" transform="translate(-14.001 -12042.001) rotate(180)" fill="currentColor"/>
</svg>
