<svg xmlns="http://www.w3.org/2000/svg" xmlns:xlink="http://www.w3.org/1999/xlink" width="30" height="30" viewBox="0 0 30 30">
  <defs>
    <linearGradient id="linear-gradient" y1="1.418" x2="0.021" y2="1.418" gradientUnits="objectBoundingBox">
      <stop offset="0" stop-color="#ff1b2d"/>
      <stop offset="0.3" stop-color="#ff1b2d"/>
      <stop offset="0.614" stop-color="#ff1b2d"/>
      <stop offset="1" stop-color="#a70014"/>
    </linearGradient>
    <linearGradient id="linear-gradient-2" x1="-0.505" y1="1.558" x2="-0.478" y2="1.558" gradientUnits="objectBoundingBox">
      <stop offset="0" stop-color="#9c0000"/>
      <stop offset="0.7" stop-color="#ff4b4b"/>
      <stop offset="1" stop-color="#ff4b4b"/>
    </linearGradient>
  </defs>
  <g id="Opera_2015_icon" transform="translate(0 107.196)">
    <path id="Path_47504" data-name="Path 47504" d="M15-107.2a15,15,0,0,0-15,15A15,15,0,0,0,14.285-77.214c.237.011.475.018.715.018a14.946,14.946,0,0,0,10-3.817,10.823,10.823,0,0,1-6.011,1.837,11.271,11.271,0,0,1-8.923-4.567,13.07,13.07,0,0,1-2.806-8.1v-.706a13.071,13.071,0,0,1,2.806-8.1,11.272,11.272,0,0,1,8.923-4.567A10.82,10.82,0,0,1,25-103.378a14.943,14.943,0,0,0-9.941-3.818H15Z" fill="url(#linear-gradient)"/>
    <path id="Path_47505" data-name="Path 47505" d="M25.354-97.637a6.721,6.721,0,0,1,5.1-2.6c4.367,0,7.906,4.951,7.906,11.058s-3.54,11.058-7.906,11.058a6.719,6.719,0,0,1-5.1-2.6,11.271,11.271,0,0,0,8.923,4.567A10.822,10.822,0,0,0,40.288-78a14.963,14.963,0,0,0,5-11.183,14.963,14.963,0,0,0-5-11.182,10.821,10.821,0,0,0-6.012-1.838,11.271,11.271,0,0,0-8.923,4.567" transform="translate(-15.291 -3.011)" fill="url(#linear-gradient-2)"/>
  </g>
</svg>
