<svg class="svg-icon" style="width: 1em;height: 1em;vertical-align: middle;fill: currentColor;overflow: hidden;" viewBox="0 0 1024 1024" version="1.1" xmlns="http://www.w3.org/2000/svg"><path d="M512 64c247.424 0 448 200.576 448 448 0 90.272-26.688 174.304-72.64 244.64l-0.64 3.584a31.936 31.936 0 0 1-16.512 20.864A447.232 447.232 0 0 1 512 960C264.576 960 64 759.424 64 512S264.576 64 512 64z m-32 65.312C282.88 145.568 128 310.688 128 512c0 212.064 171.936 384 384 384 118.624 0 224.704-53.792 295.136-138.336l-310.592-217.504-0.896-0.64A32 32 0 0 1 480 512V129.312z m376.992 213.856l-290.624 167.776 277.504 194.336A382.24 382.24 0 0 0 896 512c0-60.576-14.016-117.888-39.008-168.832z m-312.96-213.856L544 449.952l280.128-161.696A383.648 383.648 0 0 0 544 129.312z"  /></svg>
