<svg xmlns="http://www.w3.org/2000/svg" width="20" height="18" viewBox="0 0 20 18">
  <path id="print_FILL0_wght400_GRAD0_opsz48" d="M18.45,10.8V7.5H9.55v3.3H8.05V6h11.9v4.8ZM5.5,12.3h0Zm14.975,2.375a.769.769,0,1,0-.525-.225A.72.72,0,0,0,20.475,14.675ZM18.45,22.5V17.7H9.55v4.8Zm1.5,1.5H8.05V19.6H4V13.45A2.6,2.6,0,0,1,6.65,10.8h14.7A2.6,2.6,0,0,1,24,13.45V19.6H19.95Zm2.55-5.9V13.45a1.112,1.112,0,0,0-1.15-1.15H6.65A1.112,1.112,0,0,0,5.5,13.45V18.1H8.05V16.2h11.9v1.9Z" transform="translate(-4 -6)" fill="#221f1f"/>
</svg>
