<svg id="Layer_1" height="512" viewBox="0 0 100 100" width="512" xmlns="http://www.w3.org/2000/svg"><path d="m83.333 20h6.667v23.333h-6.667z"/><path d="m70 10h6.667v33.333h-6.667z"/><path d="m56.667 30h6.666v13.333h-6.666z"/><path d="m50 50v-40c-22.091 0-40 17.909-40 40 0 22.09 17.909 40 40 40 22.09 0 40-17.91 40-40zm-6.667-32.665v34.618l-19.127 19.128c-4.707-5.749-7.539-13.09-7.539-21.081 0-16.097 11.471-29.565 26.666-32.665zm6.667 65.998c-7.993 0-15.332-2.832-21.081-7.539l19.127-19.127h34.616c-3.095 15.195-16.565 26.666-32.662 26.666z"/></svg>