<svg xmlns="http://www.w3.org/2000/svg" xmlns:xlink="http://www.w3.org/1999/xlink" width="30.093" height="30.047" viewBox="0 0 30.093 30.047">
  <defs>
    <linearGradient id="linear-gradient" x1="1.474" y1="0.909" x2="1.474" y2="-1.935" gradientUnits="objectBoundingBox">
      <stop offset="0" stop-color="#bdbdbd"/>
      <stop offset="1" stop-color="#fff"/>
    </linearGradient>
    <radialGradient id="radial-gradient" cx="0.502" cy="0.427" r="0.543" gradientUnits="objectBoundingBox">
      <stop offset="0" stop-color="#06c2e7"/>
      <stop offset="0.25" stop-color="#0db8ec"/>
      <stop offset="0.5" stop-color="#12aef1"/>
      <stop offset="0.75" stop-color="#1f86f9"/>
      <stop offset="1" stop-color="#107ddd"/>
    </radialGradient>
  </defs>
  <g id="Safari_browser_logo" transform="translate(-1.711 -0.01)">
    <path id="Path_47492" data-name="Path 47492" d="M138.577,33.216c0,7.648-6.469,13.848-14.45,13.848s-14.45-6.2-14.45-13.848,6.469-13.848,14.45-13.848,14.45,6.2,14.45,13.848Z" transform="translate(-107.369 -17.008)" opacity="0.53"/>
    <path id="Path_47493" data-name="Path 47493" d="M350.643,195.58a15,15,0,1,1-15-14.929,14.965,14.965,0,0,1,15,14.929Z" transform="translate(-318.886 -180.595)" stroke="#cdcdcd" stroke-linecap="round" stroke-linejoin="round" stroke-width="0.093" fill="url(#linear-gradient)"/>
    <path id="Path_47494" data-name="Path 47494" d="M350.747,196.865a13.825,13.825,0,1,1-13.825-13.759A13.792,13.792,0,0,1,350.747,196.865Z" transform="translate(-320.165 -181.88)" fill="url(#radial-gradient)"/>
    <path id="Path_47495" data-name="Path 47495" d="M18.835,4.017a.2.2,0,0,0-.2.2V6.531a.2.2,0,0,0,.4,0V4.217a.2.2,0,0,0-.2-.2ZM17.517,4.1a.186.186,0,0,0-.041,0,.2.2,0,0,0-.18.22l.1.968a.2.2,0,0,0,.4-.042l-.1-.968a.2.2,0,0,0-.181-.179Zm2.646,0a.2.2,0,0,0-.181.179l-.1.968a.2.2,0,0,0,.4.042l.1-.968A.2.2,0,0,0,20.2,4.1a.214.214,0,0,0-.041,0Zm-4,.195a.206.206,0,0,0-.041,0,.2.2,0,0,0-.155.238L16.448,6.8a.2.2,0,0,0,.394-.083l-.481-2.264a.2.2,0,0,0-.2-.159Zm5.355,0a.2.2,0,0,0-.2.159l-.483,2.263a.2.2,0,0,0,.394.083l.483-2.263a.2.2,0,0,0-.2-.242Zm-6.648.361a.2.2,0,0,0-.08.009.2.2,0,0,0-.129.253l.3.926a.2.2,0,0,0,.383-.124l-.3-.926a.2.2,0,0,0-.174-.138Zm7.933,0a.2.2,0,0,0-.174.138l-.3.926a.2.2,0,0,0,.383.124l.3-.926a.2.2,0,0,0-.129-.253.2.2,0,0,0-.08-.009Zm-9.212.465a.2.2,0,0,0-.078.017.2.2,0,0,0-.1.265l.944,2.114a.2.2,0,0,0,.368-.163l-.944-2.114a.2.2,0,0,0-.188-.119Zm10.5.007a.2.2,0,0,0-.188.119l-.947,2.113a.2.2,0,0,0,.368.163l.947-2.113a.2.2,0,0,0-.1-.265.2.2,0,0,0-.078-.018ZM12.4,5.748a.2.2,0,0,0-.189.3l.489.843a.2.2,0,0,0,.349-.2l-.489-.843a.2.2,0,0,0-.16-.1Zm12.861,0a.2.2,0,0,0-.16.1l-.489.843a.2.2,0,0,0,.349.2l.489-.843a.2.2,0,0,0-.074-.274.2.2,0,0,0-.115-.027Zm-14.013.715a.2.2,0,0,0-.112.038.2.2,0,0,0-.045.28l1.365,1.873a.2.2,0,0,0,.282.045.2.2,0,0,0,.045-.28L11.423,6.546a.2.2,0,0,0-.17-.083Zm15.18.01a.2.2,0,0,0-.17.083L24.895,8.427a.2.2,0,0,0,.044.28.2.2,0,0,0,.282-.044l1.368-1.871a.2.2,0,0,0-.044-.28.2.2,0,0,0-.111-.038Zm-16.21.849a.2.2,0,0,0-.16.335l.654.723A.2.2,0,0,0,11,8.4a.2.2,0,0,0,.015-.283l-.654-.723a.2.2,0,0,0-.139-.066Zm17.227,0a.2.2,0,0,0-.139.066l-.654.723a.2.2,0,0,0,.015.283.2.2,0,0,0,.285-.015l.654-.723a.2.2,0,0,0-.16-.335ZM9.236,8.267a.2.2,0,0,0-.139.066.2.2,0,0,0,.015.283l1.728,1.548a.2.2,0,0,0,.285-.015.2.2,0,0,0-.015-.283L9.381,8.318a.2.2,0,0,0-.145-.051Zm19.206.007a.2.2,0,0,0-.146.051L26.567,9.872a.2.2,0,0,0-.015.283.2.2,0,0,0,.285.015l1.729-1.547a.2.2,0,0,0-.124-.35ZM8.415,9.317a.2.2,0,0,0-.125.363l.791.572a.2.2,0,0,0,.281-.044.2.2,0,0,0-.045-.28l-.791-.572a.2.2,0,0,0-.112-.038Zm20.847.007a.2.2,0,0,0-.112.038l-.792.572a.2.2,0,0,0-.045.28.2.2,0,0,0,.282.045l.792-.572a.2.2,0,0,0-.125-.363ZM7.648,10.438a.2.2,0,0,0-.087.374l2.013,1.157a.2.2,0,1,0,.2-.347L7.763,10.464a.2.2,0,0,0-.115-.027Zm22.375,0a.2.2,0,0,0-.115.027l-2.013,1.157a.2.2,0,1,0,.2.347l2.013-1.157a.2.2,0,0,0-.087-.374ZM7.068,11.632a.2.2,0,0,0-.086.384l.893.4a.2.2,0,1,0,.164-.366l-.893-.4A.2.2,0,0,0,7.068,11.632Zm23.539.008a.2.2,0,0,0-.078.017l-.893.4a.2.2,0,1,0,.164.367l.893-.4a.2.2,0,0,0-.086-.384ZM6.551,12.88a.2.2,0,0,0-.045.391l2.21.717a.2.2,0,1,0,.125-.381l-2.21-.717a.2.2,0,0,0-.08-.009Zm24.572.009a.2.2,0,0,0-.08.009l-2.211.715a.2.2,0,1,0,.125.382l2.211-.715a.2.2,0,0,0-.045-.391Zm-24.894,1.3a.2.2,0,0,0-.043.4l.957.2a.2.2,0,1,0,.084-.392l-.957-.2a.2.2,0,0,0-.041,0Zm25.214,0a.249.249,0,0,0-.041,0l-.957.2a.2.2,0,1,0,.084.392l.957-.2a.2.2,0,0,0-.043-.4ZM5.985,15.509a.2.2,0,0,0,0,.4l2.312.243a.2.2,0,1,0,.042-.4l-2.312-.243a.208.208,0,0,0-.041,0Zm25.7.017a.186.186,0,0,0-.041,0l-2.312.24a.2.2,0,1,0,.042.4l2.312-.24a.2.2,0,0,0,0-.4ZM5.946,16.858a.2.2,0,1,0,0,.4h.978a.2.2,0,1,0,0-.4Zm24.8,0a.2.2,0,1,0,0,.4h.978a.2.2,0,1,0,0-.4ZM8.335,17.951a.185.185,0,0,0-.041,0l-2.312.24a.2.2,0,1,0,.042.4l2.312-.24a.2.2,0,0,0,0-.4Zm21,.014a.2.2,0,0,0,0,.4l2.312.243a.2.2,0,1,0,.042-.4l-2.312-.243a.209.209,0,0,0-.041,0ZM7.183,19.321a.207.207,0,0,0-.041,0l-.957.2a.2.2,0,1,0,.084.392l.957-.2a.2.2,0,0,0-.043-.4Zm23.305,0a.2.2,0,0,0-.043.4l.957.2a.2.2,0,1,0,.084-.392l-.957-.2a.2.2,0,0,0-.041,0Zm-21.694.79a.2.2,0,0,0-.08.009L6.5,20.837a.2.2,0,1,0,.125.382L8.839,20.5a.2.2,0,0,0-.045-.391Zm20.081.007a.2.2,0,0,0-.045.391l2.21.717a.2.2,0,1,0,.125-.381l-2.21-.717a.2.2,0,0,0-.08-.009ZM7.95,21.68a.2.2,0,0,0-.078.017l-.893.4a.2.2,0,1,0,.164.366l.893-.4a.2.2,0,0,0-.086-.384Zm21.768.008a.2.2,0,0,0-.086.384l.893.4a.2.2,0,1,0,.164-.366l-.893-.4a.2.2,0,0,0-.078-.017Zm-20.028.435a.2.2,0,0,0-.115.027L7.561,23.305a.2.2,0,1,0,.2.347L9.776,22.5a.2.2,0,0,0-.087-.374Zm18.292,0a.2.2,0,0,0-.087.374l2.013,1.157a.2.2,0,0,0,.275-.073.2.2,0,0,0-.074-.274L28.1,22.149a.2.2,0,0,0-.115-.027ZM9.187,23.82a.2.2,0,0,0-.112.038l-.792.572a.2.2,0,0,0-.045.28.2.2,0,0,0,.281.045l.792-.572a.2.2,0,0,0,.045-.28.2.2,0,0,0-.17-.083Zm19.292.007a.2.2,0,0,0-.125.363l.791.572a.2.2,0,0,0,.281-.044.2.2,0,0,0-.045-.28l-.791-.572a.2.2,0,0,0-.112-.038Zm-17.5.069a.2.2,0,0,0-.145.051L9.105,25.494a.2.2,0,0,0-.015.283.2.2,0,0,0,.285.015L11.1,24.245a.2.2,0,0,0-.124-.35Zm15.706.006a.2.2,0,0,0-.139.066.2.2,0,0,0,.015.283L28.29,25.8a.2.2,0,0,0,.285-.015.2.2,0,0,0-.015-.283l-1.728-1.548a.2.2,0,0,0-.145-.051ZM12.62,25.371a.2.2,0,0,0-.17.083l-1.368,1.871a.2.2,0,0,0,.044.28.2.2,0,0,0,.282-.044l1.368-1.871a.2.2,0,0,0-.156-.319Zm12.419.008a.2.2,0,0,0-.112.038.2.2,0,0,0-.045.28l1.365,1.873a.2.2,0,0,0,.282.045.2.2,0,0,0,.045-.28l-1.365-1.873a.2.2,0,0,0-.17-.083Zm-14.185.289a.2.2,0,0,0-.139.066l-.654.723a.2.2,0,0,0,.015.283.2.2,0,0,0,.285-.015L11.015,26a.2.2,0,0,0-.16-.335Zm15.96,0a.2.2,0,0,0-.16.335l.654.723a.2.2,0,0,0,.285.015.2.2,0,0,0,.015-.283l-.654-.723a.2.2,0,0,0-.139-.066Zm-12.285.8a.2.2,0,0,0-.188.119L13.395,28.7a.2.2,0,0,0,.368.163l.947-2.113a.2.2,0,0,0-.1-.265.2.2,0,0,0-.078-.017Zm8.6.006a.2.2,0,0,0-.078.017.2.2,0,0,0-.1.265l.944,2.114a.2.2,0,0,0,.368-.163L23.316,26.6a.2.2,0,0,0-.188-.119Zm-10.262.648a.2.2,0,0,0-.16.1l-.489.843a.2.2,0,0,0,.349.2l.489-.843a.2.2,0,0,0-.074-.274.2.2,0,0,0-.115-.027Zm11.94,0a.2.2,0,0,0-.189.3l.489.843a.2.2,0,0,0,.349-.2l-.489-.843a.2.2,0,0,0-.16-.1Zm-8.167.03a.2.2,0,0,0-.2.159l-.483,2.263a.2.2,0,0,0,.394.083l.483-2.263a.2.2,0,0,0-.2-.242Zm4.386,0a.205.205,0,0,0-.041,0,.2.2,0,0,0-.155.238l.481,2.264a.2.2,0,0,0,.394-.083l-.482-2.264a.2.2,0,0,0-.2-.159Zm-2.19.228a.2.2,0,0,0-.2.2V29.9a.2.2,0,0,0,.4,0V27.585A.2.2,0,0,0,18.835,27.385Zm-3.7.748a.2.2,0,0,0-.174.138l-.3.926a.2.2,0,0,0,.383.124l.3-.926a.2.2,0,0,0-.129-.253.2.2,0,0,0-.08-.009Zm7.4,0a.2.2,0,0,0-.08.009.2.2,0,0,0-.129.253l.3.926a.2.2,0,0,0,.383-.124l-.3-.926a.2.2,0,0,0-.174-.138Zm-4.963.516a.2.2,0,0,0-.181.179l-.1.968a.2.2,0,0,0,.4.042l.1-.968a.2.2,0,0,0-.179-.221.208.208,0,0,0-.041,0Zm2.522,0a.186.186,0,0,0-.041,0,.2.2,0,0,0-.18.22l.1.968a.2.2,0,0,0,.4-.042l-.1-.968a.2.2,0,0,0-.181-.179Z" transform="translate(-2.078 -2.073)" fill="#f4f2f3"/>
    <path id="Path_47496" data-name="Path 47496" d="M145.316,35.367l-11.027,6.377-6.972,10.924,10.2-7.519Z" transform="translate(-119.112 -28.406)" opacity="0.409"/>
    <path id="Path_47497" data-name="Path 47497" d="M32.943,22.975,29.782,19.68,41,12.173Z" transform="translate(-14.605 -6.342)" fill="#ff5150"/>
    <path id="Path_47498" data-name="Path 47498" d="M24.18,31.22l-3.161-3.294-8.052,10.8Z" transform="translate(-5.842 -14.587)" fill="#f1f1f1"/>
    <path id="Path_47499" data-name="Path 47499" d="M12.967,30.482,24.18,22.975l8.052-10.8Z" transform="translate(-5.842 -6.342)" opacity="0.243"/>
  </g>
</svg>
