<svg xmlns="http://www.w3.org/2000/svg" width="16" height="18.124" viewBox="0 0 16 18.124">
  <path id="salary_1_" data-name="salary (1)" d="M40.185,12.3a.708.708,0,0,1-.912.414,5.007,5.007,0,0,0-1.769-.32H36.442a5.032,5.032,0,0,0-5.027,5.027.708.708,0,0,1-1.416,0,6.45,6.45,0,0,1,6.442-6.442H37.5a6.419,6.419,0,0,1,2.267.41A.708.708,0,0,1,40.185,12.3Zm1.5-7.517A4.779,4.779,0,1,1,36.9,0,4.784,4.784,0,0,1,41.681,4.779Zm-1.416,0A3.363,3.363,0,1,0,36.9,8.142,3.367,3.367,0,0,0,40.265,4.779ZM46,15.091a2.108,2.108,0,0,0-2.193-2.006c-.514,0-.887-.248-.887-.59a.588.588,0,0,1,.584-.59,3.682,3.682,0,0,1,1.423.3.708.708,0,1,0,.513-1.32,6.238,6.238,0,0,0-.927-.285v-.546a.708.708,0,1,0-1.416,0v.478A2.008,2.008,0,0,0,41.5,12.5a2.122,2.122,0,0,0,2.3,2.006c.421,0,.777.27.777.59a.624.624,0,0,1-.625.59A4.959,4.959,0,0,1,42.4,15.33a.708.708,0,0,0-.523,1.316A6.933,6.933,0,0,0,43.1,17v.417a.708.708,0,1,0,1.416,0v-.4a2.059,2.059,0,0,0,.872-.5A1.97,1.97,0,0,0,46,15.091Z" transform="translate(-30)" fill="#3e77aa"/>
</svg>
