<svg fill="none" height="512" viewBox="0 0 32 32" width="512" xmlns="http://www.w3.org/2000/svg"><path d="m13.1875 3-.1563.8125-.5937 2.96875c-.9531.375-1.8125.90234-2.59375 1.53125l-2.90625-1-.78125-.25-.40625.71875-2 3.43755-.40625.7187.59375.5313 2.25 1.9687c-.08203.5117-.1875 1.0234-.1875 1.5625s.10547 1.0508.1875 1.5625l-2.25 1.9687-.59375.5313.40625.7187 2 3.4376.40625.7187.78125-.25 2.90625-1c.78125.6289 1.64065 1.1563 2.59375 1.5313l.5937 2.9687.1563.8125h5.625l.1563-.8125.5937-2.9687c.9531-.375 1.8125-.9024 2.5937-1.5313l2.9063 1 .7813.25.4062-.7187 2-3.4376.4062-.7187-.5937-.5313-2.25-1.9687c.082-.5117.1875-1.0234.1875-1.5625s-.1055-1.0508-.1875-1.5625l2.25-1.9687.5937-.5313-.4062-.7187-2-3.43755-.4062-.71875-.7813.25-2.9063 1c-.7812-.62891-1.6406-1.15625-2.5937-1.53125l-.5937-2.96875-.1563-.8125zm1.625 2h2.375l.5 2.59375.125.59375.5625.1875c1.1367.35547 2.168.95703 3.0312 1.75l.4376.4062.5624-.1874 2.5313-.87505 1.1875 2.03125-2 1.7812-.4688.375.1563.5938c.1289.5703.1875 1.1523.1875 1.75s-.0586 1.1797-.1875 1.75l-.125.5938.4375.375 2 1.7812-1.1875 2.0312-2.5313-.875-.5624-.1874-.4376.4062c-.8632.793-1.8945 1.3945-3.0312 1.75l-.5625.1875-.125.5937-.5 2.5938h-2.375l-.5-2.5938-.125-.5937-.5625-.1875c-1.1367-.3555-2.168-.957-3.0312-1.75l-.4376-.4062-.56245.1874-2.53125.875-1.1875-2.0312 2-1.7812.46875-.375-.15625-.5938c-.12891-.5703-.1875-1.1523-.1875-1.75s.05859-1.1797.1875-1.75l.15625-.5938-.46875-.375-2-1.7812 1.1875-2.03125 2.53125.87505.56245.1874.4376-.4062c.8632-.79297 1.8945-1.39453 3.0312-1.75l.5625-.1875.125-.59375zm1.1875 6c-2.75 0-5 2.25-5 5s2.25 5 5 5 5-2.25 5-5-2.25-5-5-5zm0 2c1.668 0 3 1.332 3 3s-1.332 3-3 3-3-1.332-3-3 1.332-3 3-3z" fill="#000"/></svg>