<svg xmlns="http://www.w3.org/2000/svg" width="14.769" height="16" viewBox="0 0 14.769 16">
  <g id="share-social-interface-button_icon-icons.com_73164" transform="translate(-25.5)">
    <g id="_x35__27_" transform="translate(25.5)">
      <g id="Group_29320" data-name="Group 29320" transform="translate(0)">
        <path id="Path_47451" data-name="Path 47451" d="M37.192,9.846a3.067,3.067,0,0,0-2.587,1.423L31.31,9.386a2.892,2.892,0,0,0,.2-2.27l3.428-1.959a3.067,3.067,0,1,0-.822-2.08,3.049,3.049,0,0,0,.145.884L30.832,5.921a3.08,3.08,0,1,0-.4,4.517l-.012.024,3.726,2.129a3.118,3.118,0,0,0-.033.332,3.077,3.077,0,1,0,3.077-3.077Zm0-8.615a1.846,1.846,0,1,1-1.846,1.846A1.846,1.846,0,0,1,37.192,1.231ZM28.577,9.846A1.846,1.846,0,1,1,30.423,8,1.846,1.846,0,0,1,28.577,9.846Zm8.615,4.923a1.846,1.846,0,1,1,1.846-1.846A1.846,1.846,0,0,1,37.192,14.769Z" transform="translate(-25.5 0)" fill="#3e77aa"/>
      </g>
    </g>
  </g>
</svg>
