<svg xmlns="http://www.w3.org/2000/svg" width="15.721" height="16" viewBox="0 0 15.721 16">
  <g id="sort-by-attributes-interface-button-option_icon-icons.com_73405" transform="translate(-4.457)">
    <g id="Group_328" data-name="Group 328" transform="translate(4.457)">
      <path id="Path_43" data-name="Path 43" d="M251.645,148.467h4a.275.275,0,0,0,.286-.286v-1.714a.275.275,0,0,0-.286-.286h-4a.275.275,0,0,0-.286.286v1.714a.275.275,0,0,0,.286.286Z" transform="translate(-243.638 -141.609)" fill="gray"/>
      <path id="Path_44" data-name="Path 44" d="M251.648,2.286h2.286A.275.275,0,0,0,254.219,2V.286A.275.275,0,0,0,253.933,0h-2.286a.275.275,0,0,0-.286.286V2a.275.275,0,0,0,.286.286Z" transform="translate(-243.641 0)" fill="gray"/>
      <path id="Path_45" data-name="Path 45" d="M10.464,12.571H8.75V.286A.275.275,0,0,0,8.464,0H6.75a.275.275,0,0,0-.286.286V12.571H4.75a.265.265,0,0,0-.268.179.272.272,0,0,0,.062.313L7.4,15.92a.321.321,0,0,0,.205.08.3.3,0,0,0,.205-.08l2.848-2.848a.335.335,0,0,0,.089-.214.275.275,0,0,0-.286-.286Z" transform="translate(-4.457 0)" fill="gray"/>
      <path id="Path_46" data-name="Path 46" d="M259.282,438.616a.278.278,0,0,0-.205-.08h-7.429a.275.275,0,0,0-.286.286v1.714a.275.275,0,0,0,.286.286h7.429a.275.275,0,0,0,.286-.286v-1.714A.278.278,0,0,0,259.282,438.616Z" transform="translate(-243.641 -424.822)" fill="gray"/>
      <path id="Path_47" data-name="Path 47" d="M251.645,294.649h5.714a.275.275,0,0,0,.286-.285V292.65a.275.275,0,0,0-.286-.285h-5.714a.275.275,0,0,0-.286.285v1.714a.275.275,0,0,0,.286.285Z" transform="translate(-243.638 -283.221)" fill="gray"/>
    </g>
  </g>
</svg>
